<?xml version="1.0" encoding="utf-8"?>
<!-- Generator: Adobe Illustrator 24.0.1, SVG Export Plug-In . SVG Version: 6.00 Build 0)  -->
<svg version="1.1" id="Layer_1" xmlns="http://www.w3.org/2000/svg" xmlns:xlink="http://www.w3.org/1999/xlink" x="0px" y="0px"
	 viewBox="0 0 2267.7 2267.7" style="enable-background:new 0 0 2267.7 2267.7;" xml:space="preserve">
<style type="text/css">
	.st0{fill:#FFFFFF;}
</style>
<title>Asset 1</title>
<g id="Layer_2_1_">
	<path class="st0" d="M1484.6,1806.3l-35.7-62.3c-4.6-8-9.6-8.7-16.5-4.7l-110.8,63.9c-8.4,4.9-11.3,2.4-12.9-0.3l-9.7-16.8
		c-4-6.9-2.7-10,4.9-14.4l109.6-61.7c10.1-5.8,11-9.8,9.1-14.2l-4.4-7.5l-34-56.3c-5.1-8.8-11.8-11.6-20.6-6.5l-44.7,25.8
		c-5.3,3.1-9.2,5.3-3.2,15.6l11,19.1c3.5,6.1,3.8,10.2-1.5,13.3l-24.1,13.9c-6.1,3.5-9.8,5.6-15-3.3l-9.2-19.1
		c-4.2-7.3-13.5-9-21.1-4.6l-42.7,26.2c-7.6,4.4-6.5,10.9-1.2,20l14.1,24.4c6.2,10.7,4.4,13-4.8,18.2l-17.5,10.1
		c-15.3,8.8-21.3,3-29.3-10.7l-28.2-48.8c-2.9-5-2.5-6.7-0.5-9.3v-0.1c5.3-6.7,8.3-13.1,8.4-18.4l0,0c0.5-6.8-1.3-13.5-5-19.1l0,0
		c-17.1-29.6-47.5-30.4-76.3-80.3l0,0l-49-84.8l33.7-58.1l-7.5-3.8l-30.8,53.4l-5.4-9.4l27.9-48.2c-9.2-4.7-18.6-9.4-27.3-13.9
		l-18.2,31.6l-13.6-23.6l10.8-18.7c-3.5-1.8-6.7-3.5-9.6-4.9l-7.5,12.9l-77.8-134.7l-3.3-5.7c-14.4-25-13.4-38-14-56
		c0-0.2,0-0.5,0-0.7s0-0.4,0-0.6l0,0c-0.8-21.4-12.2-40.9-30.3-52.4l0,0l-0.7-0.4c-0.1,0-0.2-0.1-0.3-0.2
		c-15.3-9.6-27.2-15.2-41.7-40.2l-1.5-2.7l-15.5-26.8l0,0c-28.8-49.9-14.3-76.6-31.4-106.2l0,0c-3-6.1-8-10.9-14.1-13.9l0,0
		c-4.8-2.7-12.3-3.2-21.4-1.7h-0.1c-2.2,0.4-3.5-0.2-4.8-2.5l-4.2-7.4c-4.3-7.4-5.3-16.6-4.4-26.3c1.9-12,4.3-17,21.5-27l8.4-4.8
		c83.1-48,111.6-154.3,63.6-237.4l0,0l-2.4-4.2c-48-83.1-154.3-111.6-237.4-63.6l-14.5,8.4c-15.7,9-24,7-38.9,5.2l0,0l0,0
		c16,16.9,36.8,33.9,64,49.6l23.6-13.6c52.1-30,118.6-12.1,148.7,40l2.4,4.2c5.8,10.1,10,21.1,12.3,32.6c0.2,0.9-0.4,1.7-1.2,1.9
		s-1.7-0.3-1.9-1.1l0,0c-2.5-9.4-6.2-18.3-11-26.7l-2.4-4.2c-30.1-52-96.6-69.8-148.6-39.9l-17,9.8c3.1,1.8,6.3,3.5,9.6,5.2l12-6.9
		c47.6-27.4,108.4-11.1,136,36.5l2.4,4.2c27.4,47.6,11.1,108.4-36.4,135.9l-11.5,6.6c-14.9,8.7-24,6.9-35.9,5.3h0.1
		c-32.6-6.4-65.2,11.2-77.6,42.1l0,0c-5.2,12.5-7.3,21.8-22.6,31.2l-3.4,1.9c-0.9,0.5-1.6,0.9-2.3,1.3l-7,4.1
		c-47.6,27.4-108.4,11.1-135.9-36.4l-2.4-4.2c-27.4-47.6-11.1-108.4,36.4-135.9l13.3-7.7c0.8-0.5,1.5-0.8,2.2-1.2
		c-2.6-2.1-5.1-4.2-7.7-6.3l-12.5,7.2c-12.2,7-22.9,16.4-31.6,27.5l0,0c-1.5,2-3.3,0.8-2.3-0.9c9.2-13.7,21.4-25,35.6-33.2l6.8-3.9
		c-9.8-8.3-19.2-16.9-28.1-25.7l-10.5,6.1c-24.6,14.2-45.1,34.5-59.4,59l0,0c-2.6,4.2-7.5,1.7-5.9-2.3
		c13.7-30.6,36.5-56.2,65.3-73.4c-2.2-2.3-4.4-4.6-6.5-6.9c-80.2,49.2-106.6,153.4-59.6,234.9l2.4,4.2
		c48,83.1,154.3,111.6,237.4,63.6l9.5-5.5c12.6-7.3,21.5-9.7,30.4-5.7c0.6,0.3,1.1,0.5,1.5,0.6c6.8,2.8,15.6,7,20.3,15.2l4.5,7.7
		c2.5,4.4,2.6,4.9,0.4,7.9c-5.5,6.9-8.7,13.5-8.7,18.8l0,0c-0.5,6.8,1.3,13.5,5,19.2h-0.1c14,24.2,50.4,35.8,76,79.6l15.8,27.5l0,0
		l1.5,2.7c14.5,25.1,13.4,38.1,14,56.2c0,0.1,0,0.3,0,0.4c0,0.3,0,0.5,0,0.8l0,0c0.9,21.3,12.2,40.9,30.2,52.3l0,0
		c0.2,0.1,0.3,0.2,0.5,0.3c0.2,0.1,0.4,0.2,0.6,0.3c15.3,9.5,27.1,15.1,41.5,40.1l3.3,5.7l0,0l101.6,176l-103.9,180
		c-5.6,9.7-11.3,18.7-18,22.3c-2.1,0.8-4.3,1.4-6.5,1.7c-0.7,0-1.3,0.1-2,0.2c-10.6,0.8-22.6-3.8-35-10.9c-19-11-35.6-21.7-30.6-42
		l0,0c2.5-7.3,1.1-14.7-7-19.4l-97.2-55.3c-1.4-0.8-2.8-1.5-4.3-2.1c-5.1-2-10-2.1-12.9,3l-56.8,98.4c-5.3,9.2-3,12.3,3.9,16.2
		l48,30.2c9.2,5.3,11.5,1.4,16.6-7.5l15.1-24.8c3.5-6.1,7.6-8.2,10.2-6.7l12.4,7.1c6.1,3.5,4.3,8.5,0.3,15.4l-53.2,93.3
		c-7.2,12.6-9.8,12.7-19.9,6.8s-10.8-10.1-7.2-16.2l15.4-26.7c3.5-6.2,5.1-10.6-3.6-15.6l-47.9-27.7c-7.9-4.5-12.2-5.3-18,4.7
		l-51.5,87.3c-7.4,12.8-3.9,21.1,7.1,27.5l93.5,54.5c8.3,4.8,13.3,3.5,18.4-1.2c0.9-1.1,1.9-2.1,3-3l0,0
		c15.1-13.8,28.9-1.3,47.5,9.5c13.7,7.9,25.2,16,29.5,26.1c2.7,8.8-1,17.6-6.9,27.9l-17.1,29.7c-11.4,19.8-4.6,45,15.1,56.5
		c19.8,11.4,45,4.6,56.5-15.1l254.9-441.4l25.5,44.1c25.1,44,17,81.4,31,105.6l0.1-0.1c3,6.1,8,11,14,13.9l0,0
		c4.4,2.5,11.2,3.1,19.3,2l0,0c0.2,0,0.4-0.1,0.6-0.1h0.2l0,0h0.3c0.1,0,0.2,0,0.2,0c2.6-0.3,4.3,0.1,6.2,3.5l145.9,252.7
		c11.4,19.8,36.7,26.5,56.5,15.1s26.5-36.7,15.1-56.5l-39-67.7c-5.6-9.7-4.7-18.7,2.4-22.9l23.1-13.3c9.9-5.7,12.6-4.7,17,3
		l15.8,30.5c5.3,9.2,8.4,10.2,16.1,5.8s42-24.7,47-27.6s9.3-7.2,3.5-17.1l-16.4-25.9c-3.5-6.1-6.5-11.2-0.1-14.9l23.2-11.6
		c12.4-7.2,13-7.5,17.5,0.3l17.2,29.7c4.2,7.3,8.2,8.8,17.7,3.3s30.7-15.2,43.7-22.7c10.2-5.9,11.1-7.8,8-13.5L1484.6,1806.3z
		 M1328.3,1661.1c-4.1,2.4-6.5-4.4-3.1-6.4l41.1-23.7c3.5-2,9.3-1.9,13.1,4.6l32.8,54.2l1.3,2.3c2.6,4.4-3.9,7.3-6.6,2.9l-31.8-51.1
		c-3.8-6.5-6.9-8.6-10.4-6.6L1328.3,1661.1z M1201.1,1795.8l25.1-16.4c1.6-0.9,3.2-2,4.8-3.1l0,0c2.1-1.7,4.6-2.1,4.8-0.6
		c0,0.4-0.1,0.9-0.2,1.3l0,0c-1.4,4.8-5.6,8.4-11.9,12l-20.6,11.9C1198.8,1803.4,1196.9,1798.2,1201.1,1795.8z M728.7,997.7
		c-0.5-0.8-1.2-1.4-2-1.8l0,0c-0.1,0-0.2-0.1-0.4-0.1l-0.5-0.2c-0.8-0.3-1.5-0.9-1.9-1.7s-0.8-1.6,1-2c8.7-1,15.1,0.3,17.5,4.5
		c5.5,9.5-11.8,29.8-38.6,45.3c-2,1.2-3.9,2.2-5.9,3.2c-7.2,2.5-12.1-6.6-4.5-10.8l0,0c1.5-0.8,3-1.6,4.6-2.5
		C718.6,1019.8,732.6,1004.5,728.7,997.7z M715.9,1001.5c1.8,3.1,1.8,4.3,0.5,6.5c-3.4,4.7-7.4,8.8-12.1,12.2c-2.5,1.8-4,1.4-5.3-1
		l-12.1-21c-2.1-3.7-1.8-6.1,0.9-8.5c0.1-0.1,0.3-0.3,0.4-0.4c2.9-2.4,5.5-5.1,7.9-8c0.3-0.3,0.6-0.6,0.9-1c2-2.5,5-2.9,7.6,1.6
		L715.9,1001.5z M567.1,641.9l-7.6,4.4c-7.5,4.4-18.9-5.9-12.6-9.5l22.3-12.9c78.5-45.3,179.4-18.3,224.7,60.2l2.4,4.2
		c3.8,6.6,7.1,13.4,10,20.5c2.6,6.2-5.8,9.7-9.1,3.1c-1-1.8-2-3.7-3.1-5.5l-2.4-4.2C746.5,623.5,645.7,596.5,567.1,641.9z
		 M775.3,876.8L775.3,876.8c2.3-2.5,3.7,0,2.4,1.9c-11.9,13.6-25.9,25.2-41.5,34.2L716.9,924c-5.5,3.2-6-2.1-0.7-5.2l21.8-12.6
		C751.8,898.3,764.4,888.4,775.3,876.8z M689.5,875.6l18.9-10.9c13.3-7.7,24.8-18,33.7-30.5l0,0c4.5-6.8,9.1-1.1,6.6,3.7l0,0
		c-9.5,18.7-24.3,34.3-42.5,44.8l-6,3.5C694.2,889.7,682.6,879.6,689.5,875.6z M685.6,912.1c3.3-1.9,7.6-0.8,9.6,2.5
		c1.9,3.3,0.8,7.6-2.5,9.6c-3.3,1.9-7.6,0.8-9.6-2.5c0,0,0,0,0-0.1C681.2,918.3,682.3,914.1,685.6,912.1L685.6,912.1z M685.3,1043.8
		c1.1,2,0.5,4.5-1.5,5.7s-4.5,0.5-5.7-1.5c-1.1-2-0.5-4.5,1.5-5.7C681.6,1041.1,684.1,1041.8,685.3,1043.8
		C685.2,1043.7,685.2,1043.8,685.3,1043.8L685.3,1043.8z M587.6,919.8c2.4-1.4,5.4-0.6,6.8,1.8c1.4,2.4,0.6,5.4-1.8,6.8
		s-5.4,0.6-6.8-1.8c0,0,0,0,0-0.1C584.4,924.3,585.1,921.2,587.6,919.8C587.5,919.8,587.5,919.8,587.6,919.8z M392.1,903.2l0.2,0.4
		c1.5,3.2,3,6.4,4.9,9.6l2.4,4.2c30.1,52,96.6,69.8,148.6,39.8l18.7-10.8c7.2-4.1,12,9.9,3.1,15l-24,13.8
		c-52,30-118.5,12.2-148.6-39.8l-2.4-4.2c-4.8-8.3-8.4-17.1-10.9-26.3C383.1,900.2,389,896.9,392.1,903.2z M593,995.6l-17,9.8
		c-78.6,45.3-179.4,18.3-224.7-60.2l-2.4-4.2c-6.8-11.8-12.1-24.4-15.8-37.5c-0.4-2,2.6-3.3,3.6-0.4c0,0,0,0,0,0.1
		c3.5,10.8,8.2,21.3,13.9,31.2l2.4,4.2c45.4,78.6,146.2,105.6,224.7,60.2l12.4-7.2C596.6,988,599.9,991.6,593,995.6z M621.2,994.4
		c-13.1-4.5-16.5-12.3-12.6-12.3c3.7-0.2,9.7,2.7,15.2,4.4c5.4,2.1,12,3.3,14.8,5.8C641.8,994.7,634.4,998.8,621.2,994.4z
		 M629,890.6c-4.3-5.5,10.1-20.1,30.5-13.4c20.3,7.2,22.9,27.5,16.1,29.2c-6.4,2.2-15.3-3.6-24-5.9C643.4,897,632.8,896.2,629,890.6
		z M663.2,988.7c-2.3,1.3-5.2,0.5-6.5-1.8s-0.5-5.2,1.8-6.5s5.2-0.5,6.5,1.7C666.3,984.5,665.5,987.4,663.2,988.7L663.2,988.7z
		 M658.2,1057.3c-6.3,0-10.9-1.5-12.8-4.9c-2.3-4-0.5-9.9,4.2-16.6c1.4-1.8,2.3-1.4,2.7-0.7c0.4,1,0.5,2.1,0.4,3.2l0,0
		c-0.1,1,0,2,0.5,2.8c1.1,2,4.2,2.7,7.6,2.9h0.1C668.6,1044.8,667.7,1056.6,658.2,1057.3z M667.6,1035.8c-1.2,0.1-2.4,0-3.6-0.1
		c-1.8-0.5-2.7-1.8-3.8-3.7l-8.9-15.4c-3.1-5.4-5.2-10.3-0.8-10.9s5.8,0.8,8.4,5.3l12,20.7C672.2,1034.1,671.8,1035.3,667.6,1035.8z
		 M730.8,1691.7L730.8,1691.7c7.4,8.2,17.8,14.3,26.7,19.4c13.2,7.6,24.2,11.2,33.5,12l0,0c2.8,0.2,3.1,2.3,1.8,4.5s-3.1,5-7.9,3.8
		c-8.6-2.3-16.9-5.8-24.6-10.4c-11.9-6.9-26.7-15.5-33-28.8c-0.1-0.1-0.1-0.2-0.2-0.4c0-0.1-0.1-0.2-0.1-0.3
		C726.1,1688.8,728.7,1689,730.8,1691.7L730.8,1691.7z M569.6,1690.7c-3.4,5.9-8.4,0.1-5.7-4.6l49.1-85l0,0
		c3.4-5.9,8.6-7.3,15.9-3.2l88.3,50.2c5,3.3,2.7,9.9-3.6,6.3l-82.7-43.1c-4.9-2.5-12.4-5.2-16.7,2.3l0,0L569.6,1690.7z
		 M652.9,1689.2c-6.4-3.7-15.9-2-22.7,9.9l-15.3,25c-0.3,0.5-0.7,1.1-1,1.7c-1.9,3.1-5,1.4-2.9-2.2l2.5-4.4l15.3-25
		c6.8-11.8,16.4-13.5,22.7-9.9l12.4,7.2c2.3,1.3,4.4,3.1,6,5.2c0.1,0.1,0.1,0.1,0.1,0.2c0.2,0.3,0.4,0.7,0.5,1
		c0.4,1.3-1,1.5-2.3,0.5l-0.1-0.1c-0.9-0.7-1.8-1.4-2.8-2L652.9,1689.2z M569,1800.4c-0.5,1.9-1.9,2.1-2.1-0.2
		c0.2-3.6,1.2-7.1,3.2-10.2l6.3-10.9c3.6-6.3,4.6-8.7-2.5-12.8l-26-14.9c-5.4-3.1-8.8-3.9-11.8,1l-48.2,78.4l0,0
		c-3.3,5.4-9.6,2.2-6.6-3.3c0.2-0.4,0.4-0.8,0.6-1.2l48.9-82.9c4.5-7.7,5.4-7.2,11.3-3.9c0,0,23.1,13.3,36.5,21.1l0,0
		c6.6,3.8,7.7,8.7,4.2,14.8l-11.3,19.6C570.5,1796.7,569.7,1798.5,569,1800.4L569,1800.4z M571.7,1820.3c-0.4-2.1,2.3-2.3,4.6-0.2
		l0,0c1.8,1.4,3.7,2.7,5.7,3.8c15.1,8.8,23.1,6.3,32.6-10.2l53.2-93.3c1-1.7,1.9-3.5,2.6-5.4c0.1-0.1,0.1-0.2,0.2-0.3
		c1.1-2.4,4.1-2.5,4.6,0.3c0.2,4.4-1.4,9.5-4.7,15.3l-51,94.5c-9.5,16.5-19.7,17.8-34.9,9C581.4,1831.9,574.1,1827.6,571.7,1820.3
		L571.7,1820.3z M673.2,1922C673.2,1922,673.1,1921.9,673.2,1922c-7.7-7.7-17.4-13.3-24.1-17.2c-2.7-1.6-5.3-3.2-7.8-4.7
		s-4.9-3-7.3-4.4c-8.4-4.9-26-15-43.3,0.8l-0.2,0.2c-1.1,1-2.1,2-3.1,3.1c-0.2,0.2-0.5,0.4-0.6,0.6c-3,2.3-3.8-2.4-1.3-5
		c0.2-0.2,0.4-0.4,0.6-0.5c1-1.1,2-2.1,3-3.1l0.3-0.3c17.3-15.8,34.8-5.7,43.3-0.8c2.4,1.4,4.8,2.8,7.3,4.4s5.1,3.2,7.8,4.7
		c7.5,4.3,18.8,10.9,26.8,20.1C676,1922,674.9,1923.6,673.2,1922z M679.4,2033.8c-2.7,4.7-8.8,6.4-13.5,3.7
		c-4.7-2.7-6.4-8.8-3.7-13.5s8.8-6.4,13.5-3.7l0,0C680.5,2023.1,682.1,2029.1,679.4,2033.8L679.4,2033.8z M669.3,2007.9
		c-5.6-3.2-7.6-10.4-4.3-16.1l269.8-467.3l13.6,23.5l-263,455.6C682.2,2009.2,675,2011.2,669.3,2007.9L669.3,2007.9z M708,2042.4
		c-1.3,2.3-4.3,3.1-6.6,1.8c-2.3-1.3-3.1-4.3-1.8-6.6c1.3-2.3,4.3-3.1,6.6-1.8C708.6,2037.1,709.4,2040.1,708,2042.4L708,2042.4z
		 M717.7,2027.7c-1.2,2.3-4.1,3.2-6.4,2s-3.2-4.1-2-6.4c0.1-0.1,0.1-0.2,0.2-0.3L966,1578.6l5.4,9.4L717.7,2027.7z M1036,1723.5
		c-3.5-17.2-9.6-57.2-27.3-87.8l0,0l-174.5-302.1l0,0l-7.9-13.7c-21.4-37.1-43.2-32.2-57.3-56.7s-4.8-51-20.1-77.4l-6.4-11.1l0,0
		l-15.5-26.8l0,0c-17.7-30.6-37.1-48.5-50.6-56.5c-9.1-5.4-3.4-13,4.5-7.8c11.2,7.4,31.4,19.9,54.3,59.6l0,0l15.4,26.8l0,0l5.7,10
		c19.8,34.3,11.9,54.7,24,75.7s34,24.7,49,50.7l5.1,8.8l7.9,13.8l0,0l174.4,302.1l0,0c19.9,34.5,28.6,76,31.1,90.9
		C1049.6,1731.1,1038.2,1733.8,1036,1723.5L1036,1723.5z M1043.4,1615.7L1043.4,1615.7l-174.5-302.1l0,0l-7.1-12.2l-1.3-2.3
		c-20.7-35.9-8.8-48.8-25.4-77.5s-39.4-34.8-54.7-61.2l-3.2-5.6l0,0l-15.5-26.8l0,0c-19.4-33.7-23.2-52.8-24.8-74.8
		c-1.5-22,20.3-24.4,21.6-8.9s0,31.3,23.6,72l0,0l15.5,26.8l0,0l5.6,9.7c17.6,30.6,39.1,27.7,56.4,57.7s3.8,46.7,20.6,75.7l9.1,15.8
		l0,0l174.4,302.1l0,0c23.5,40.7,54.9,56.8,65.3,68.4c9.7,10.7-8.1,31.5-22.4,20.1C1091.6,1680.3,1062.8,1649.4,1043.4,1615.7
		L1043.4,1615.7z M1230,2009.5c-2.3,1.3-5.1,0.5-6.4-1.7L1082.8,1764c-2.7-4.6-1.5-5.3,1.7-6.5s5.6,0.3,8.1,4.6l139,240.9
		C1232.9,2005.3,1232.2,2008.2,1230,2009.5L1230,2009.5z M1239.8,2024.3c-2.3,1.3-5.3,0.5-6.6-1.8s-0.5-5.3,1.8-6.6
		c2.3-1.3,5.3-0.5,6.6,1.8C1242.9,2020,1242.1,2023,1239.8,2024.3L1239.8,2024.3z M1278.9,2004c2.7,4.7,1.1,10.8-3.6,13.5
		s-10.8,1.1-13.5-3.6s-1.1-10.8,3.6-13.5l0,0C1270.2,1997.7,1276.2,1999.3,1278.9,2004L1278.9,2004z M1276.2,1972
		c3.2,5.6,1.3,12.8-4.3,16.1c-5.6,3.2-12.8,1.3-16.1-4.3l0,0l-136.6-236.6c-2.4-4.2-1.8-5.6,2.1-8.4c3.6-2.5,7-5.1,10.3-7.8
		c0.1,0,0.1-0.1,0.2-0.1c2.5-2.2,4.1-1.7,7.2,3.6L1276.2,1972z M1277.6,1721l-0.2-0.3l-9.2-19c-2.2-3.5-6.8-3.4-9.9-1.6l-35.4,20.2
		c-5.1,3.2-7.2-1.8-3.8-4.2l0,0l41.8-25.7c3.1-1.8,7.7-1.9,9.9,1.6l9.2,19l0.1,0.2c9.1,15.8,17.8,12.1,23.7,8.7l26.2-16.4
		c0.3-0.2,0.7-0.4,1-0.7l0,0c2-1.6,4-0.2,3.7,1.9c-0.1,0.5-0.3,0.9-0.5,1.4l0,0c-1.5,2.9-3.9,5.4-6.8,6.9l-24,13.9
		C1297.6,1730.5,1286.7,1736.8,1277.6,1721L1277.6,1721z M1370.8,1868.4c2.2,4.4-2.7,9.5-6.2,3.9l0,0l-12.6-19.9
		c-2-3.4-5.6-9.8-4.7-15.9c0.7-4.2,2.6-3.2,3.9-0.4c0.1,0.1,0.1,0.2,0.2,0.3c0.9,2.2,2,4.3,3.2,6.3L1370.8,1868.4z M1472.6,1811.2
		l-27.2-50.2c-4.9-8.5-13.2-6.5-21.1-1.9l-100.4,58c-14.9,8.6-21.6,0.6-23.8-3.2l-9.7-16.8c-2.9-5-3.6-9.2-3-12.6
		c0-0.1,0-0.2,0.1-0.4c0.1-0.3,0.1-0.6,0.2-0.9c0.8-2.2,2.5-1.5,3.6,0.8c0,0,0,0,0,0.1c0.5,1.2,1,2.3,1.7,3.4l9.7,16.8
		c2.2,3.8,8.2,13.7,23.1,5.1l96.6-57.3c9.5-5.5,18.3-10.6,27.3,5.2l28.9,50.3C1481.9,1813.6,1475.5,1816.6,1472.6,1811.2z"/>
	<path class="st0" d="M1689.9,880c-22.1-82.5-98-138.9-183.3-136.4h0.1c-12.4,0.8-17.1-6-18.8-16.8l0,0
		c-1.8-32.7-29.8-57.7-62.5-55.8c-9.9,0.6-19.5,3.6-27.9,8.8l0,0c-7.9,3.8-12.7,0.7-20.1-11.6c0,0,0-0.1-0.1-0.1
		c-49.1-89.1-161.1-121.6-250.2-72.5c-55.9,30.8-91.8,88.2-95.1,151.9c20.8-1.1,42.4-2.6,64-4.2c7.5-66.2,67.3-113.8,133.5-106.3
		c49.3,5.6,90.1,40.8,103,88.7c3.5,12.9,14.6,22.2,27.9,23.4c0.4,0.1,0.9,0.1,1.3,0.1h0.3l0,0c7.3,0,10,1.3,13.3,7
		c0.6,1.2,1.2,2.3,1.8,3.4l0.4,0.8v-0.1c10.5,18.2,29.9,29.4,50.8,29.3c1,0.2,2,0.2,3,0c6.7-0.9,10.1,1.5,12.9,5.2
		c1,2.1,2.3,4,3.8,5.8c0,0,0,0,0.1,0.1l0,0c7.9,9.6,20.7,13.8,32.8,10.5c64.3-17.3,130.5,20.9,147.8,85.2s-20.9,130.5-85.2,147.8
		c-64.3,17.3-130.5-20.9-147.8-85.2l0,0c-3.9-14.6-17.6-24.5-32.7-23.5l0,0c-7.3,0.1-10.4,0.8-14.8-4c-1.3-1.8-2.6-3.5-4-5.1l0,0
		c-0.6-1.1-1.5-2-2.5-2.7c-10.7-11.4-24.7-19.1-40-21.9l0,0c-1-0.2-2-0.3-3-0.5c-6.6-1.2-11.2-3.5-14.6-11.2l0,0
		c-0.1-0.3-0.3-0.5-0.4-0.8s-0.2-0.4-0.3-0.6c-1.7-3-3.9-5.8-6.4-8.1c-3.2,2.7-7.1,4.3-11.3,4.6l-6,0.5c2,3.8,0.6,9.3-6,11
		c-27.3,7.4-56.3,5.6-82.5-5.2c-18.5,1.1-37.8,2.2-56.7,3.1c4.1,2.8,8.2,5.5,12.6,8c28.7,16.6,61.5,24.7,94.6,23.3c0,0,0.1,0,0.2,0
		c4.2-0.1,5.1,5.5,1,6c-33,1.3-65.7-6.8-94.2-23.3c-7.1-4.1-13.9-8.7-20.3-13.8c-4.5,0.2-9,0.5-13.5,0.7
		c9.1,7.9,18.9,14.9,29.3,20.9c26,15,55.2,23.5,85.2,24.6c7.7,0.4,9,8.1,6.3,16l0,0c-2,6.5-3.5,13.2-4.7,19.9l0,0
		c-4.2,17.5-3.3,43-21.7,83.2c-1.3,2.5-3.2,3.2-6.4,2.8c-0.1,0-0.1,0-0.1,0c-7.8-1-14.3-0.3-18.6,2.1l0,0
		c-12,5.9-18.9,18.3-16.8,31.2c0,0.2,0.1,0.5,0.1,0.7s0.1,0.5,0.1,0.8l0,0c1,3.8,2.6,7.4,4.8,10.6l0,0c1.9,2.8,0.2,4-2.3,3.9l0,0
		c-6.1-0.3-11.1,0.5-14.7,2.4l0,0c-12,5.9-18.9,18.3-16.8,31.2c0,0.2,0.1,0.5,0.1,0.7c0,0.3,0.1,0.5,0.1,0.8l0,0
		c1,3.9,2.6,7.5,4.9,10.8l0,0c2,2.8,0.3,3.9-2.2,3.8c0,0,0,0-0.1,0c-6.1-0.3-11.2,0.4-14.8,2.4l0,0c-12,5.9-18.9,18.3-16.8,31.2
		c0,0.2,0.1,0.5,0.1,0.7c0,0.3,0.1,0.5,0.1,0.8l0,0c1,4.6,3.9,9.9,8.2,15.3v0.1c1.9,2.5,2.1,4,0.4,6.9l-47.5,82.2
		c3.2,1.6,6.5,3.1,9.8,4.6l46.1-79.8c1.3-2.3,3-1.8,5.5,0.3c0.1,0.1,0.3,0.2,0.4,0.3c0,0,0.1,0,0.1,0.1c0.9,0.7,2,1.6,3.2,2.5
		c1.4,1.1,2.8,2.1,4.2,3.2c0.1,0.1,0.3,0.2,0.4,0.3c0.6,0.4,1.2,0.9,1.8,1.3c0.1,0.1,0.2,0.1,0.2,0.2c2.6,1.8,4.8,3.2,2.9,6.4
		l-43.5,75.4c9.2,4.4,18.5,8.8,27.7,13.1l43.2-74.8c2.9-5.1,10.2,1.2,8.6,3.8l-43.2,74.9c2.6,1.2,5.1,2.4,7.7,3.5l43.9-76.1
		c1.5-2.4,4.2-3.7,7-3.3l0,0c6.7,0.9,12.4,0.8,16.8-0.7v0.1c0.3-0.1,0.6-0.2,0.8-0.3c0.3-0.1,0.3-0.1,0.5-0.2
		c12.3-4.6,19.6-16.8,18.7-30.2l0,0c0-4-1.9-8.9-5.2-14c0,0,0,0,0-0.1c-1.2-2-0.6-4,2.2-3.8l0,0c4,0.3,8,0,11.8-1.1l0,0
		c0.3-0.1,0.6-0.2,0.9-0.3c0.3-0.1,0.3-0.1,0.4-0.2c12.3-4.6,19.6-16.8,18.7-30.2l0,0c0-4.2-2-9.1-5.4-14.3c0,0,0,0,0-0.1
		c-1.4-2.2,0.2-3.7,2.8-3.5l0,0c3.8,0.3,7.7-0.1,11.3-1.1v0.1c0.3-0.1,0.6-0.2,0.9-0.3l0.4-0.1c12.3-4.7,19.6-16.8,18.7-30.2l0,0
		c0-5-2.8-11-7.6-17.3l-0.1-0.1c-1.9-2.6-1.8-4.9-0.5-7.1c25.6-35.8,48-47.7,61-60.1l0,0c6.6-5.5,12.8-11.6,18.5-18.1l0.1-0.1
		c5.6-6,8.8-4.7,13.4,2c0.5,0.8,1,1.6,1.5,2.3c0.2,0.3,0.4,0.7,0.6,1l0,0c56.1,84.9,170.3,108.2,255.2,52.2
		C1679.7,1037.7,1710.5,956.6,1689.9,880z M1329.1,693.2L1329.1,693.2c-35.2-62.4-114.3-84.5-176.7-49.3
		c-29.5,16.6-51.3,44.1-60.8,76.5c-0.8,2.8-3.5,1.8-3.1-0.4c2.9-11.9,7.6-23.4,13.7-34c35.8-62,115.1-83.3,177.2-47.4
		c22,12.7,39.7,31.5,51.1,54.2C1330.8,693.7,1329.8,694.4,1329.1,693.2z M1354.7,733.2c-1.2,2-3.7,2.7-5.7,1.5s-2.7-3.7-1.5-5.7
		s3.7-2.7,5.7-1.5C1355.2,728.6,1355.8,731.2,1354.7,733.2L1354.7,733.2z M1349.4,653.2C1349.4,653.2,1349.3,653.2,1349.4,653.2
		c-65.4-71.4-176.3-76.4-247.7-11.1c-28.9,26.4-48.1,61.8-54.6,100.4l0,0c-0.9,6.3-6,3.9-5.6-0.5c8.4-96.5,93.3-167.9,189.8-159.5
		c48.5,4.2,93.1,28.4,123.1,66.8C1357.6,653.8,1352.2,656.2,1349.4,653.2L1349.4,653.2z M1363.5,666.5c-0.8,1.4-2.7,1.9-4.1,1
		s-1.9-2.7-1-4.1c0.8-1.4,2.6-1.9,4-1.1C1363.8,663.2,1364.3,665,1363.5,666.5L1363.5,666.5L1363.5,666.5z M1394.5,717.4
		c-1.6,2.9-5.3,3.9-8.2,2.2c-2.9-1.6-3.9-5.3-2.2-8.2c1.6-2.9,5.3-3.9,8.2-2.2c0,0,0,0,0.1,0
		C1395.2,710.9,1396.2,714.5,1394.5,717.4C1394.6,717.4,1394.6,717.4,1394.5,717.4L1394.5,717.4z M1417.1,773.3
		c-1.1,2-3.6,2.6-5.6,1.5s-2.6-3.6-1.5-5.6s3.6-2.6,5.6-1.5l0,0C1417.5,768.9,1418.2,771.3,1417.1,773.3L1417.1,773.3z
		 M1421.4,699.3c-7.4,2-15,7-20.5,5.1c-5.8-1.4-3.6-18.9,13.8-25c17.5-5.7,29.9,6.8,26.2,11.5
		C1437.6,695.7,1428.6,696.3,1421.4,699.3L1421.4,699.3z M1447.5,779.7c-11.3,3.7-17.6,0.3-14.9-1.8c2.4-2.1,8-3.2,12.7-4.9
		c4.8-1.4,9.9-4,13-3.8C1461.7,769.2,1458.7,775.8,1447.5,779.7L1447.5,779.7z M1476.9,800.7c-0.8,1.4-2.7,1.9-4.1,1.1
		c-1.4-0.8-1.9-2.7-1.1-4.1c0.8-1.4,2.6-1.9,4.1-1.1C1477.3,797.3,1477.8,799.2,1476.9,800.7C1477,800.6,1477,800.6,1476.9,800.7
		L1476.9,800.7z M1477.9,721.7c-1.2,2-3.8,2.7-5.8,1.6c-2-1.2-2.7-3.8-1.6-5.8c1.2-2,3.8-2.7,5.8-1.6
		C1478.3,717,1479.1,719.6,1477.9,721.7C1477.9,721.6,1477.9,721.6,1477.9,721.7L1477.9,721.7z M1335.7,953.8
		c1.8-3.1,5.8-4.2,8.9-2.4s4.2,5.8,2.4,8.9c-1.8,3.1-5.8,4.2-8.9,2.4l0,0C1335,960.9,1333.9,956.9,1335.7,953.8L1335.7,953.8z
		 M1267,887.2c1.3-2.2,4-2.9,6.2-1.7c2.2,1.3,2.9,4,1.7,6.2s-4,2.9-6.2,1.7C1266.4,892.1,1265.7,889.3,1267,887.2z M1165.7,1124.7
		l0.5-0.9c5.9,5.3,12.2,10.1,18.9,14.3l-2,3.5c-1.4,2.5-3.8,4.7-7.6,1.5l-0.1-0.1c-3.8-3-7.2-6.5-10.1-10.3
		C1163.9,1130.3,1163.6,1128.2,1165.7,1124.7z M1137,1174.4l0.6-0.9c5.9,5.3,12.2,10.1,18.9,14.3l-2,3.4c-1.4,2.5-3.8,4.7-7.6,1.5
		l-0.1-0.1c-3.8-3-7.2-6.4-10.1-10.3C1135.2,1180,1135,1177.9,1137,1174.4L1137,1174.4z M1154.6,1218.4c-1.9-1-3.9-2.1-5.9-3.2
		c-26.8-15.5-44.1-35.7-38.5-45.3c2.2-3.8,7.8-5.3,15.4-4.7c1.7,0.2,1.9,3.6,0.3,4.2c0,0,0,0-0.1,0.1c-0.8,0.4-1.5,1-2,1.7
		c-3.9,6.7,10.1,22.1,30.6,33.9c1.5,0.9,3,1.7,4.6,2.5l0,0C1166.8,1211.8,1161.8,1220.9,1154.6,1218.4L1154.6,1218.4z
		 M1174.5,1221.4c-1.1,2-3.7,2.7-5.6,1.5c-2-1.1-2.7-3.7-1.5-5.6c1.1-2,3.7-2.7,5.6-1.5l0,0
		C1175,1216.8,1175.7,1219.3,1174.5,1221.4L1174.5,1221.4z M1138.9,1120.2c2.2-3.8,7.8-5.3,15.4-4.7c1.7,0.3,1.9,3.6,0.3,4.2
		c0,0,0,0-0.1,0.1c-0.8,0.4-1.5,1-1.9,1.7c-3.9,6.7,10,22.1,30.6,33.9c1.5,0.9,3,1.7,4.5,2.5l0,0c7.7,4.1,2.7,13.2-4.4,10.8
		c-2-1-3.9-2.1-5.9-3.2C1150.6,1150,1133.4,1129.8,1138.9,1120.2z M1183.3,1209.2c-2.7-0.1-2.7-2.1-1.2-4.8l1.6-2.8
		c3.1,1.2,6.1,2.2,9,3.1c-1.3,2.2-2.8,4.1-3.8,4.4h-0.3C1186.8,1209.3,1185.1,1209.3,1183.3,1209.2z M1207.2,1225.9
		c-2,3.4-6.6,4.9-12.8,4.9c-9.6-0.8-10.4-12.5-2.8-13.2h0.1c3.4-0.2,6.5-0.9,7.6-2.9c0.2-0.4,0.4-0.8,0.4-1.2
		c0.2-0.2,0.2-0.4,0.1-0.6v-0.1c0-0.3,0-0.6,0-0.8c0.2-1.3,1.3-2.2,2.6-2c0.6,0.1,1.2,0.4,1.6,0.9
		C1208,1216.9,1209.4,1222.2,1207.2,1225.9z M1196,1167.5c1.2-2,3.7-2.6,5.7-1.5c2,1.2,2.6,3.7,1.5,5.7c-1.2,2-3.7,2.6-5.7,1.5
		S1194.9,1169.5,1196,1167.5L1196,1167.5L1196,1167.5z M1206.1,1115.9c-26.8-15.5-44.1-35.8-38.6-45.3c2.2-3.8,7.8-5.3,15.4-4.7
		c1.8,0.2,2,3.6,0.3,4.3l0,0c-0.8,0.4-1.5,1-2,1.7c-3.9,6.7,10.1,22.1,30.6,34c1.5,0.9,3,1.7,4.5,2.5l0,0c7.7,4.1,2.7,13.3-4.5,10.7
		C1210,1118.1,1208,1117,1206.1,1115.9L1206.1,1115.9z M1212,1159.5c-2.7-0.1-2.7-2.1-1.2-4.7l1.6-2.8c3.1,1.2,6.1,2.2,9,3.1
		c-1.3,2.2-2.8,4.1-3.8,4.4c-0.1,0-0.2,0-0.3,0C1215.5,1159.6,1213.7,1159.6,1212,1159.5z M1235.9,1176.3c-2,3.4-6.5,4.9-12.8,4.9
		c-9.5-0.8-10.4-12.5-2.8-13.2h0.1c3.5-0.2,6.5-0.9,7.6-2.9c0.2-0.4,0.4-0.8,0.4-1.2c0.1-0.2,0.2-0.4,0.1-0.6v-0.1
		c0-0.3,0-0.6,0-0.8c0.2-1.3,1.3-2.2,2.6-2.1c0.7,0.1,1.2,0.4,1.6,1C1236.7,1167.2,1238,1172.6,1235.9,1176.3L1235.9,1176.3z
		 M1224.7,1117.9c1.1-2,3.7-2.7,5.7-1.5c2,1.1,2.7,3.7,1.5,5.7c-1.1,2-3.7,2.7-5.7,1.5l0,0
		C1224.2,1122.4,1223.5,1119.9,1224.7,1117.9z M1223.1,1072.2l-11.3,19.7c-1.4,2.4-3.7,4.5-7.2,1.7c-4.1-3.1-7.7-6.8-10.7-10.9
		c-1.3-2.2-1.5-4.2,0.4-7.6l0.4-0.7c36.4-63,23.4-98.5,40.4-127.9s47.6-39.9,76.9-30c20.7,7,13.8,32.6-7.2,28.4
		c-23.8-4.7-36.9-1.4-47,16.1C1238.8,994,1255.4,1016.2,1223.1,1072.2L1223.1,1072.2z M1264.6,1126.6c-2,3.4-6.5,4.9-12.8,4.9
		c-9.5-0.8-10.4-12.5-2.8-13.2h0.1c3.4-0.2,6.5-0.9,7.6-2.9c0.2-0.4,0.3-0.8,0.4-1.2c0.1-0.2,0.2-0.4,0.1-0.6l0,0c0-0.3,0-0.7,0-1
		c0.2-1.3,1.4-2.2,2.7-2c0.6,0.1,1.2,0.4,1.6,1C1265.3,1117.6,1266.7,1122.9,1264.6,1126.6z M1349.8,984.2
		c-1.5,14.9-13.1,36.7-41.8,58.3c-28.8,21.6-35.9,24.8-53.3,55l-4,7c-1.4,2.5-3.1,4.9-4.3,5.2c-0.2,0.1-0.5,0.1-0.7,0.1h-0.2
		c-0.5,0-1,0-1.5,0.1c-0.7,0-1.5,0-2.5-0.1c-0.3,0-0.7,0-1-0.1c-2.5-0.2-2.4-2.1-0.9-4.7l8-13.9c14.1-23.9,33.2-44.5,56.1-60.2
		c23.5-16,30.7-41,30.9-51S1351.3,969.3,1349.8,984.2z M1667.4,854.7c0.8-1.5,2.6-2,4.1-1.2s2,2.6,1.2,4.1s-2.6,2-4.1,1.2
		c0,0-0.1,0-0.1-0.1C1667.1,857.8,1666.7,856.1,1667.4,854.7z M1620.2,856.1L1620.2,856.1c-28.7-43.3-80.5-65.4-131.7-55.9
		c-0.1,0-0.1,0-0.1,0c-4.2,0.7-5.7-5-2-5.9c53.6-10.1,107.7,14.3,135.6,61.2C1623,857.7,1621.1,857.4,1620.2,856.1z M1603.6,790.5
		c-29.8-17.3-64.1-25.4-98.6-23.2c-13.8,1.5-11-13.8-2-14.5c66.5-3.4,129.2,31.2,161.9,89.3c1.7,3.3-1.2,5.8-3.5,2.4c0,0,0,0-0.1,0
		C1646.4,822.3,1626.7,803.8,1603.6,790.5z M1645.6,935.7c-0.9,1.4-2.7,1.9-4.1,1s-1.9-2.7-1-4.1c0.8-1.4,2.6-1.9,4-1.1
		C1645.9,932.4,1646.4,934.2,1645.6,935.7C1645.5,935.7,1645.5,935.7,1645.6,935.7L1645.6,935.7z M1417.5,1016.4
		c8.7,9.3,18.7,17.2,29.8,23.6c62.1,35.8,141.4,14.4,177.2-47.6c7.7-13.4,13-28.2,15.6-43.5l0,0c0.8-4.4,5.4-4.5,5.4-0.1
		c-3.7,71.6-64.8,126.6-136.3,122.8c-37.7-2-72.7-20.3-95.8-50.1C1410.6,1017.9,1414.1,1012.7,1417.5,1016.4L1417.5,1016.4z
		 M1401.1,1004.4c1-1.7,3.2-2.3,4.9-1.3c1.7,1,2.3,3.2,1.3,4.9s-3.2,2.3-4.9,1.3l0,0C1400.7,1008.3,1400.1,1006.1,1401.1,1004.4
		L1401.1,1004.4z M1370.4,956.1c-3.4-1.9-4.5-6.3-2.6-9.6c1.9-3.4,6.3-4.5,9.6-2.6c3.4,1.9,4.5,6.3,2.6,9.6
		C1378.1,956.9,1373.8,958.1,1370.4,956.1C1370.4,956.1,1370.3,956.1,1370.4,956.1L1370.4,956.1z M1381.1,963
		c1.1-1.9,3.6-2.6,5.5-1.5s2.6,3.6,1.5,5.5s-3.6,2.6-5.5,1.5C1380.6,967.5,1379.9,965,1381.1,963C1381,963,1381,963,1381.1,963
		L1381.1,963z M1663.8,1015.3c-48.4,83.8-155.5,112.5-239.3,64.1c-15.7-9.1-30-20.6-42.2-34c-1.6-2.1-0.3-4.6,1.8-2.4l0,0
		c67.1,69.8,178.1,71.9,247.8,4.8c21.8-21,37.8-47.2,46.4-76.2l0,0c0.8-2.7,3.3-1.1,3,0.8C1677.4,987.4,1671.5,1001.8,1663.8,1015.3
		L1663.8,1015.3z"/>
	<path class="st0" d="M849.8,214.9c0.1-0.1,0.1-0.1,0.2-0.1C850,214.8,849.8,214.8,849.8,214.9c-1.5,1.2-12.2,17.1-9.7,36.7
		c11.1,0.1,22.2,0.3,33.4,0.7c3.4-20.8,14.9-31.4,16.1-32.1c0.1,0,0.1-0.1,0.2-0.1c0,0-0.1,0-0.2,0.1c-1.4,1.1-10.6,14.7-10.1,32.3
		c11.2,0.5,22.3,1.1,33.4,2c4.5-16.4,13.6-24.8,14.7-25.3c0.1,0,0.1-0.1,0.2-0.1l-0.2,0.1c-1.3,1-8.3,11.5-9.8,25.7
		c11.5,0.9,22.9,2.1,34.2,3.5c4.8-13.1,12.1-19.8,13.1-20.3c0,0,0.1-0.1,0.2-0.1c-0.1,0-0.1,0-0.2,0.1c-1.1,0.8-6.7,9.1-9.1,20.8
		c12.1,1.6,24,3.4,35.7,5.6c4.5-9.5,10-14.4,10.8-14.8c0,0,0.1-0.1,0.2-0.1l-0.2,0.1c-0.9,0.7-5,6.6-7.7,15.4
		c35,6.7,68.1,16.4,97.4,29.9c-20-13.7-41.1-25.8-63-36c-73.3-34-154.6-46.6-234.7-50.7c-80.4-4.1-163.9,0.9-238.6,33.2
		c8.1-3.7,12.8-5.8-4.7,2c-17.3,7.9-12.7,5.8-4.6,2.2c-59.8,28.5-107.5,76.7-130.3,139.7c-14.5,39.8-19.5,83-10.8,124.6
		c8,37.6,26.8,72,52.4,100.5c41.8,46.4,97.9,75.1,157.9,88.7c-21-9.1-41.2-20.1-60.1-33c-8.6,4.3-15.2,4.8-15.3,4.5
		c0.3,0.3,6.1-1.5,12.8-6.2c-10.7-7.5-20.9-15.7-30.5-24.6c-11.2,7.1-20.6,7.9-20.8,7.6c0.4,0.4,9.3-2.6,17.9-10.2
		c-9.8-9.4-18.8-19.6-26.9-30.5c-15.4,8.6-28.1,7.5-28.2,7.2c0.4,0.5,13.6-1.6,25.4-11.2c-7.4-10.4-13.7-21.5-19-33.2
		c-20.1,9.7-36,5.7-36.1,5.3c0.3,0.6,18.5,0.7,33.6-11c-4.2-10.2-7.4-20.7-9.7-31.5c-27.7,8.3-46.3-3.8-46.2-4.3
		c0.1,0.8,24.1,9,44.5-4.9c-1.7-10.9-2.5-22-2.2-33c-32.7,5.8-51-10.9-50.8-11.4c0,0.9,26.6,15.2,51.4-0.2
		c0.8-9.2,2.2-18.4,4.2-27.4c-1.2,0-2.5,0-4,0c-32.7,0.1-48.1-18.2-48.9-19.8c0,0-0.1-0.1-0.1-0.2c0,0.1,0,0.1,0.1,0.2
		c1.4,2,24.6,19,50.9,8.7c1.7-0.5,3.4-0.9,5.2-1.2c2.5-8.8,5.6-17.5,9.2-25.9c-2.4-0.2-4.9-0.6-7.3-1.1
		c-32.2-5.7-44.2-26.2-44.7-27.9c0-0.1-0.1-0.1,0-0.2s0,0.1,0,0.2c1,2.2,20.9,22.8,48.6,17.5c2.9-0.4,5.8-0.3,8.7,0.3
		c3.7-7.3,7.7-14.4,12.2-21.2c-3.3-0.7-6.5-1.7-9.6-3c-31.8-11.6-39.6-35-39.2-35.3c-0.5,0.8,15.8,26.1,44.8,25.7
		c3.8,0.2,7.4,1.2,10.8,2.9c5-6.8,10.5-13.3,16.2-19.5c-3.3-1.2-6.5-2.8-9.4-4.8c-29.3-16.9-33.1-41.2-32.6-41.5
		c-0.6,0.6,11.1,28.4,39.7,33.1c3.8,0.8,7.4,2.5,10.4,4.9c5.9-5.7,12-11.1,18.4-16.2c-3.7-1.9-7.2-4.3-10.3-7.2
		c-25.9-21.7-25.4-46.3-25-46.5c-0.7,0.5,6,30,33.5,39.4c5.1,2.2,8.5,5.1,10.3,7.9c7-5.1,14.2-9.9,21.7-14.4c-2-1.9-3.9-4-5.7-6.2
		c-21.8-25.8-17-50.1-16.5-50.2c-0.8,0.4,0.6,30.6,26.1,44.6c2.5,1.6,4.7,3.5,6.5,5.8c6.6-3.6,13.4-7,20.3-10.2
		c-0.9-1.4-1.8-2.9-2.7-4.5c-17.1-29.2-7.9-52.3-7.3-52.4c-0.9,0.3-5,30.3,18,48.5c1.1,1.1,2.2,2.2,3.2,3.5c8-3.4,16.2-6.4,24.4-9.2
		c-0.4-1.1-0.9-2.3-1.3-3.6c-11.8-31.8,1.9-52.9,2.4-52.8c-0.9,0.1-10.7,29,9,50.9c0.5,0.6,0.9,1.2,1.3,1.8c9-2.7,18-5.2,27.2-7.3
		c-11.1-29.6,0.1-49.9,0.6-49.9c-0.8,0.2-8,27,9,47.7c9.4-2,18.8-3.6,28.2-5c-5.3-29.5,8.3-46.9,8.8-46.8c-0.8,0-11.3,23.3,0.1,45.6
		c10.5-1.3,21-2.3,31.3-2.8c0.5-28,15.6-42.1,17.1-42.8c0.1,0,0.1-0.1,0.1-0.1l-0.1,0.1c-1.7,1.3-14.2,20.3-8.6,42.4
		c10.3-0.5,20.8-0.8,31.5-1.1c1.1-26.7,15.6-40.2,17-41c0.1,0,0.1-0.1,0.2-0.1l-0.2,0.1c-1.7,1.3-13.6,19.4-9,40.8
		c10.8-0.2,21.7-0.3,32.7-0.3C835.4,227.7,848.4,215.6,849.8,214.9z"/>
	<path class="st0" d="M1924.2,1137.1c-20.2-123-119.6-209.6-230.2-259.7c0.1,0.5,0.3,1,0.4,1.4c6.1,22.7,7.9,46.2,5.4,69.6
		c25.5-20,27-52.9,26-53.4c0.7,0.2,6.9,31.6-20.9,65.4c10.3,6.4,20.2,13.2,29.8,20.5c34.6-13.3,43-50.8,42.2-51.5
		c0.6,0.3,1.2,31.7-31.2,60c5.5,4.5,10.9,9,16.1,13.8c-5.9-5.6-8.2-8,5.2,4.7l3.8,3.7c0.8-0.2,1.6-0.5,2.4-0.7
		c38-6.1,53.4-43,52.7-43.9c0.6,0.4-4.4,32.6-43.3,55c-0.4,0.3-0.8,0.5-1.2,0.7c7.6,8.3,14.7,16.9,21.4,25.9
		c1.5-0.3,3.1-0.5,4.6-0.5c38.6,0.5,60.1-33.2,59.5-34.2c0.5,0.5-9.9,31.4-52,46.8c-1,0.4-1.9,0.7-2.8,1.1c6,9,11.5,18.4,16.4,28
		c2-0.1,4.1,0,6.1,0.2c38,7.3,64.9-22.3,64.5-23.4c0.4,0.5-15.2,29.4-59.3,37.2c-1.4,0.3-2.8,0.5-4.1,0.8
		c4.8,10.7,8.9,21.8,12.2,33.1c0.4,0.1,0.8,0.2,1.2,0.3c36.1,14.2,67.8-10.6,67.6-11.7c0.3,0.6-20,26.6-64.9,26.5
		c2.8,12.3,4.7,24.9,5.5,37.5c32.3,18.5,66.2,0.3,66.1-0.9c0.2,0.6-23.4,22.2-65.6,15.4c0,2.7,0,5.4-0.1,8.2
		c-0.3,10.6-1.5,21.1-3.4,31.5c28,23.7,63.9,11.6,64.1,10.4c0.1,0.6-27.1,18.4-67.1,3.8c-2.9,11.5-6.7,22.7-11.5,33.5
		c19.6,30.1,56.6,31.5,57.1,30.5c-0.1,0.6-29.9,6.8-62.8-18.4c-5.8,11.3-12.5,22-20.2,32.2c13.7,33.6,50.4,41.4,51.1,40.5
		c-0.2,0.6-31.5,1.8-59.6-29.8c-8.3,9.7-17.5,18.8-27.3,27c7.3,35.5,42.1,49.3,43,48.5c-0.3,0.6-31.9-3.6-53.8-40
		c-6.2,4.6-12.6,9-19.3,13c-5.2,3.2-10.5,6.1-15.8,8.9c1,35.5,32.2,54.5,33.3,53.9c-0.4,0.5-30.9-8.7-45.7-47.7
		c-14.5,6.7-29.4,12.3-44.7,16.8c0,27,17.2,46.9,18.1,46.7c-0.5,0.3-19.6-13.2-26.8-44.2c-15.3,4-30.9,7.2-46.5,9.4
		c-1.7,23.4,9.7,42.1,10.6,42c-0.5,0.2-14.8-13.9-18.2-40.9c-17.5,2.2-35.1,3.5-52.8,4.2c-1.3,17.4,4.3,31.2,5.1,31.3
		c-0.4,0.1-8.9-11.5-10.8-31.2c-7,0.2-14,0.3-21,0.3c-9,0-17.9-0.3-26.9-0.8c1.1,11.2,4.4,19,4.9,19c-0.3,0.1-5.5-6.9-8.7-19.2
		c-32.4-2.1-64.8-7.2-96.3-13.4c-4.8-0.9-9.5-1.9-14.2-2.9c50.7,19.5,102,37.6,155.3,48.3c40.4,8.1,80.9,9,121.9,6.4
		c14.2-1.1,28.3-3.1,42.3-5.9c20.2-3.9,40.2-7.9,59-16.3c55.3-24.6,99.6-72.2,125.7-126.3
		C1925.3,1272.1,1935.4,1204.9,1924.2,1137.1z"/>
	<path class="st0" d="M1627.8,921.9c-0.4-8.2-1.7-16.3-3.8-24.2c-1.3-4.9-3-9.7-4.9-14.4c-1.3,11.1-4.7,21.9-9.8,31.8
		C1615.5,917.2,1621.7,919.5,1627.8,921.9z"/>
	<path class="st0" d="M1379.3,823.9c1.8,1,20.8,19.8,21.2,56.3c9.2,0.2,18.3,0.5,27.6,1.1c4.6,0.3,9.1,0.6,13.7,0.9
		c12.6-27.4,1.6-55.4-0.1-57.4c1.6,1.3,16.6,22.8,10.9,58.3c14,1.3,27.9,2.9,41.8,4.9c14.9-24.2,9.4-51.8,8.1-53.9
		c1.2,1.5,11.4,23.5,1.8,55.4c14.9,2.4,29.8,5.3,44.6,8.6c18.8-26.7,10.6-59,9.6-59.2c0.6,0,14,25,1.6,61.8
		c13.1,3.2,26.1,6.9,38.9,11c10.5-11.2,15.3-24.4,17.3-35.1c-6.6-13.5-15.8-25.6-27-35.6c-159.6-39.7-325.3-19.4-485.5,6
		c-81.7,13-163.6,25.2-246.1,32c-21.6,1.8-43.3,3.2-65,3.9c-2.1,2.6-4.3,5.1-6.5,7.6c25.3,3,51.1,5,77.4,5.9
		c-2.1-8.6-5.1-14.4-5.9-15.2c0.8,0.6,5.2,5.8,9.1,15.3c13.9,0.4,28,0.6,42.1,0.5c-2.2-11.5-6.4-19.3-7-19.3
		c0.4-0.1,6.3,6.6,10.7,19.2c2.3,0,4.7-0.1,7-0.1l0,0c10.4,0.3,20.9,0.6,31.4,0.7c-1.8-14.4-7.2-24.6-7.8-24.6
		c0.4-0.1,8,8.5,12.4,24.6c12.1,0.2,24.3,0.2,36.4,0.2c-1-16.9-7.5-29.4-8.2-29.4c0.4-0.1,9.5,10.2,13.5,29.3
		c11.5,0,23-0.1,34.5-0.4c0.4-19.7-7.6-35.1-8.3-35.1c0.5-0.2,11.3,12.3,14.5,35c12.5-0.2,25-0.6,37.6-1c1.1-22.3-9.2-40-10-39.9
		c0.5-0.2,13.7,13.6,17.1,39.7c14.2-0.5,28.4-1.1,42.6-1.8c2.3-25.6-11.4-46.1-12.3-46c0.5-0.2,17.1,15.1,20.7,45.6
		c12.3-0.6,24.6-1.3,36.8-2l3.6-0.2c4.3-26.6-9.7-48.9-11.6-50.4c1.7,0.9,18.6,17.6,20.9,49.8c14-0.9,28-1.9,42.1-3
		c5.6-27.7-9.2-51.2-11.1-52.8c1.7,0.9,19.3,18.3,21,52c14.7-1.1,29.3-2.2,44-3.3c5.9-28-9-52-11-53.5c1.7,0.9,19.6,18.6,21.1,52.8
		c14.5-1,29.1-1.8,43.6-2.4c8.1-29.4-8-55.4-10.1-57.1c1.8,1,21,20,21.2,56.6c15.2-0.5,30.4-0.7,45.6-0.6
		C1397.1,850.9,1381.3,825.5,1379.3,823.9z"/>
	<path class="st0" d="M783.8,1298.5l-4.2-2.6c0,0-1.1-0.7-1.2-0.8l-0.7-0.5l-1.7-1.1l-5.2-3.5l0.4-0.1c-3.1-2.6-6-5.5-8.6-8.6
		c-23.3-5-46.9-8.8-70.7-11.2c-70.5-7.1-145.2-1.8-210.3,28.2c0.2-0.1,0.2-0.1-0.2,0.1c-2.2,1-1.2,0.5-0.4,0.2
		c-9,4.2-17.8,8.8-26.6,13.6c-70,38.1-113.2,114.1-134.1,188.6c-22.3,79.6-22.6,165.5-2.1,245.5c19.2,75.1,57.1,144.6,110.8,200.6
		c21.3,22.1,44.9,41.9,70.3,59.1c-2.4-2.2-4.8-4.4-7.2-6.7c-17.1-16.4-32.8-34.2-47-53.1c-6.3,2.3-10.9,2.5-11,2.2
		c0.3,0.3,4.5-0.9,9.7-4c-7.5-10.1-14.5-20.5-21.2-31.2c-8.1,3.8-14.6,4-14.7,3.8c0.4,0.3,6.6-1.5,13.1-6.3
		c-7-11.3-13.5-23-19.7-34.9c-11.9,4.6-21.3,3.2-21.4,2.9c0.4,0.5,10-0.5,19.6-6.6c-5.8-11.5-11.3-23.3-16.3-35.3
		c-15.6,4.6-27.3,0.5-27.3,0.1c0.3,0.6,13,1.8,25.5-4.7c-5-12.2-9.6-24.4-13.8-36.9c-0.1-0.3-0.2-0.5-0.3-0.8
		c-16.6,8.1-31.1,4-31.2,3.6c0.4,0.7,16.7,0.9,29.1-10c-3.5-10.8-6.6-22-9.5-33.4c-19.5,5.9-34-1.3-34-1.8
		c0.2,0.8,17.3,4.3,32.4-4.8c-2.7-11.2-5-22.7-7-34.2c-21.6,2.6-35-7.8-34.9-8.2c0.1,0.8,16.6,7.9,33.8,1.5
		c-2-12.6-3.6-25.3-4.7-38.1c-19.4,3.2-32.7-5.8-32.6-6.3c0.2,0.8,16.4,6.5,32.1-0.7c-0.8-11.3-1.3-22.7-1.4-34
		c-19.8,2.9-33.1-6.8-33-7.2c0.2,0.8,16.8,7.3,33-0.1c0.1-11.2,0.6-22.5,1.5-33.6c-20.9-1-32.4-13.2-32.2-13.6
		c0,0.8,15.1,10.4,32.8,6.7c1.1-11.6,2.8-23,4.9-34.3c-20.5-4.9-29.6-18.4-30.1-19.8c0.9,1.7,13.7,13.2,31.4,13.1
		c2.6-12.6,5.9-25,9.8-37.2c-20.1-3.4-29.8-17.1-29.6-17.5c-0.1,0.8,14,12.6,32,10.4c3.7-10.5,8-20.8,12.8-30.8
		c-19.7-7.2-27.2-22-27.5-23.5c0.7,1.8,12.6,15.6,30.8,16.9c5.2-10,11-19.7,17.4-29c-21.7-11.6-26.2-30.4-25.8-30.7
		c-0.5,0.7,9.7,19.9,30.6,24c6.6-8.9,13.7-17.3,21.4-25.2c-21.2-16.1-21.9-36.7-21.4-36.9c-0.6,0.6,6,23.1,27.7,30.7
		c8.6-8.2,17.8-15.8,27.6-22.6c-18-18.7-16-38.6-15.5-38.8c-0.7,0.5,2.8,23.2,22.7,33.9c3.1-2.1,6.3-4.1,9.6-6.1
		c5.8-3.4,11.7-6.6,17.7-9.5c-15.4-22.2-10-42.1-9.1-43.4c-0.8,2-1.2,25.7,17.8,39.4c10.2-4.5,20.6-8.4,31.2-11.7
		c-12.7-23.9-4.9-43.2-3.9-44.4c-1,1.9-4.4,25.8,13.3,41.7c10.9-2.9,21.9-5.3,33-7c-10.8-25.9-0.4-44.8,0.8-46
		c-1.3,1.8-7.7,26.5,9.8,44.4c9.6-1.2,19.4-2,29.1-2.5c-7.1-30.2,9.4-47.9,9.9-47.7c-1,0-14.5,24.8,1.5,47.3
		c11.5-0.3,22.9,0,34.4,0.6c-7.7-30,9.1-47.7,9.7-47.5c-1,0-15,25.4,2.6,47.8c0.1,0.2,0.2,0.4,0.4,0.6c9.8,0.7,19.6,1.8,29.3,3.1
		c0-0.6,0-1.1,0-1.7c-1.6-31.5,20.1-45.1,20.7-44.8c-1.1-0.3-21.3,21.2-8,47.1c0.2,0.4,0.3,0.8,0.5,1.3c1.2,0.2,2.3,0.3,3.5,0.5
		c10.3,1.7,20.6,3.6,30.9,5.8c-2.2-28.5,13.9-43.3,15.4-44.1c-1.9,1.4-16.4,23.4-4.3,46.5c9.2,2.1,18.4,4.4,27.6,6.8
		c0-0.2,0-0.4,0.1-0.6c1.3-14.9,6.9-25.3,12.4-32.1C792.5,1303.8,788.3,1301,783.8,1298.5z"/>
	<path class="st0" d="M930.7,1338.3c-1.1-0.5-2.2-1-3.3-1.5l7.3,12.6c3.4-2.1,5.9-3,6.4-3.1c-0.6,0.2-2.9,1.7-5.7,4.3l23.8,41.3
		c7.5-17.7,20.9-24.3,22.3-24.6c-1.9,0.7-17.1,13.7-17,33.8l5.8,10c7.8,3.8,15.6,7.7,23.4,11.6c8.1-24.6,28.3-31.3,28.8-30.9
		c-0.9-0.4-20.7,12.3-20.1,35.2c10.6,5.3,21.1,10.7,31.6,16.2c8.9-21,26.7-26.9,27.1-26.4c-0.8-0.4-17.8,10.4-19.9,30.1
		c10.1,5.2,20.2,10.3,30.4,15.4c9.3-16.8,24.2-21.7,24.6-21.3c-0.7-0.3-14.4,8.3-18.8,24.2c10.2,5,20.4,10,30.7,14.8
		c9.1-12.1,20.4-15.7,20.8-15.4c-0.6-0.3-10.6,5.9-16.2,17.4c7.9,3.7,15.9,7.3,23.9,10.8c2.2,1,4.5,1.9,6.7,2.9
		c7.3-6.5,14-8.6,14.3-8.4c-0.5-0.2-6.1,3.1-11.3,9.7c25.7,11,51.5,21.5,77.7,31.2c-30-18-58.8-38.4-87.2-59.5
		C1071,1420.5,1004.9,1372.8,930.7,1338.3z"/>
	<path class="st0" d="M819.6,1334.4c-7.3-12.6-13.8-20-20.6-25.6c-5.8,10.2-7.1,22.4-3.5,33.6c0,0.1,0,0.2,0.1,0.3
		c11.8,3.3,23.5,6.9,35.1,10.8L819.6,1334.4z"/>
	<path class="st0" d="M1485.4,814.9c28.9,2.8,57.6,7.2,86,13.2c-0.4-0.3-0.9-0.5-1.3-0.8C1544.5,812.4,1514.2,808,1485.4,814.9
		L1485.4,814.9z"/>
	<path class="st0" d="M2004.5,1103.3c-20.1-77.8-63.1-148.3-119.8-204.9c-56-55.8-124.1-95.1-196.8-124.8
		c-48.1-19.6-99.8-31.7-150.9-40.2c-14.6-2.4-29.3-4.4-44.1-6.1c1.8,9.5,5.9,11.5,11.9,11.5c0.5,0,1.1,0,1.6-0.1l0.1,0.4v-0.4
		c2-0.1,4-0.1,6-0.1c33,0,65.5,8.8,94.1,25.3c7,4.1,13.8,8.6,20.2,13.5c3.5-0.6,7-0.3,10.3,0.8c8.4,2.9,12.9,11.9,12.9,11.9
		c-2.1,0.8-4.3,1.4-6.5,1.7c21.2,20.5,37.3,45.7,46.9,73.6c42.2,18,81.8,41.6,117.8,70c50.7,39.6,91.1,91.6,112.8,152.4
		c11.4,29.1,16.3,62.7,17.1,93.8s-2.5,63.1-11.1,93c-8.8,30.5-20.6,59.9-37.5,86.9c-16.4,26.2-35.8,48.3-58.7,68.8
		c-49.3,44.1-116,55.4-179.8,58.9c-83,4.5-163.4-21.4-239.7-51.2c-11.7-4.6-23.4-9.2-35.1-13.9c-32.1-7.4-63.8-16.4-95-26.7
		c-40.7-13.3-80.6-28.8-119.8-45.9c-38.5-16.8-76.1-35.5-114.3-52.9c-52.3-23.7-105.8-44.6-160.7-61.3c0,0.6,0,1.3,0,1.9
		c0.4,15.2,0.7,27.3,13.2,49l22.6,39.2c14,6.4,27.8,13.2,41.4,20.4c72.8,38.4,136.7,89.9,202.7,138.6c21.4,15.8,43.2,31,66,44.8
		c46.5,17.1,93.9,31.7,142.4,42.7c153.2,34.6,325,35.1,462.5-50.3c67-41.6,121-102.5,151.4-175.5
		C2020.7,1271,2025.4,1184.2,2004.5,1103.3z M914.8,1291c-10-4.1-13.9-13.9-13.9-13.9s12.7-3.8,22.6,0.3s13.5,14.5,13.5,14.5
		S924.8,1295.1,914.8,1291z M944.5,1313c-5.3-2.7-7.2-8.5-7.2-8.5s6.8-1.8,12.1,0.9s7.1,8.7,7.1,8.7S949.8,1315.6,944.5,1313z
		 M1963.4,1052c-0.1-0.2,20.6,13,26.8,36.8c6.2,23.8-5.7,44.5-5.6,44.2s-17.2-16.3-22.8-37.3S1963.4,1052.2,1963.4,1052z
		 M1961.6,1123c0-0.1,12.8,10.3,14.2,26c1.4,15.7-9.2,28.3-9.2,28.1s-10.6-12-11.9-26.2S1961.6,1123.1,1961.6,1123z M1958.4,1201.9
		c-0.5,6.7-6,11.5-6,11.5s-4.2-5.9-3.8-12.2s5.6-11.5,5.6-11.5S1958.9,1195.2,1958.4,1201.9L1958.4,1201.9z M1686.9,810.6
		c-10.4-4.2-15.4-15.3-15.4-15.3s12.1-4.4,22.5-0.2s15.3,15.5,15.3,15.5S1697.3,814.8,1686.9,810.6z M1709.7,830.5
		c-4.7-2.8-6.2-8.4-6.2-8.4s6.1-1.2,10.7,1.5s6.1,8.5,6.1,8.5S1714.3,833.2,1709.7,830.5L1709.7,830.5z M1726.5,819.3
		c0,0,13.7-3.4,24.6,2.5s14.8,18.7,14.8,18.7s-13.5,3.1-24.4-2.7S1726.5,819.3,1726.5,819.3L1726.5,819.3z M1764.6,864.5
		c-5.9-4.1-7.4-11.6-7.4-11.6s8.1-1.1,14,3s7.3,11.8,7.3,11.8S1770.5,868.6,1764.6,864.5L1764.6,864.5z M1787.9,888.7
		c-3.8-3.3-4.7-8.9-4.7-8.9s5.8-0.5,9.8,3s4.4,9.3,4.4,9.3S1791.7,891.9,1787.9,888.7L1787.9,888.7z M1797.7,875.8
		c-12.6-8.5-16.1-24.5-16.1-24.5s17.2-2.5,29.9,6s15.9,24.8,15.9,24.8S1810.3,884.3,1797.7,875.8L1797.7,875.8z M1820.1,908.2
		c-6.5-5.1-7.8-14-7.8-14s9.5-0.6,16,4.5s7.6,14.1,7.6,14.1S1826.6,913.3,1820.1,908.2z M1855.8,945.2c0,0-6.6-0.9-10.6-5.3
		s-4.2-11-4.2-11s6.8,0.2,11,4.8S1855.8,945.3,1855.8,945.2L1855.8,945.2z M1845.2,898.4c0,0,19.7,0.8,32,12.8s12.7,30.9,12.7,30.9
		s-19.4-1.1-31.7-13.1S1845.2,898.4,1845.2,898.4L1845.2,898.4z M1871,954.5c-0.1,0,10.6,0.5,17.6,7.9s6.9,18,6.9,17.9
		s-10.2-1.6-16.8-8.5S1871,954.6,1871,954.5L1871,954.5z M1906.8,1022.3c0,0-6.9-2-10.4-7.4s-2.6-12.5-2.6-12.6s7.2,1.5,10.8,7.1
		S1906.8,1022.4,1906.8,1022.3L1906.8,1022.3z M1910.6,966.4c-0.1-0.1,19.4,4.7,31.1,22s9.2,37.5,9.1,37.3c0-0.2-18.6-7.9-29.1-23.4
		S1910.7,966.6,1910.6,966.4L1910.6,966.4z M1924.9,1021.1c-0.1-0.1,15.5,5.5,22,19.8s0.7,29.7,0.7,29.6s-13.9-7.7-19.9-20.7
		S1925,1021.3,1924.9,1021.1L1924.9,1021.1z M1935.6,1105c-2.2-8.5,2-17.4,2-17.5c0,0,8.8,5,11.2,14s-2.9,17.7-2.9,17.7
		C1945.8,1119.2,1937.8,1113.5,1935.6,1105z M1934.9,1289.8c1-5.2,6-8.6,6-8.6s3,5.1,2,10.3s-5.6,8.7-5.6,8.7
		S1933.9,1295,1934.9,1289.8L1934.9,1289.8z M1932.7,1333.2c3.2-7.8,12-11.4,12-11.4s3,8.8-0.2,16.6S1933,1350,1933,1350
		S1929.4,1341,1932.7,1333.2L1932.7,1333.2z M1333.7,1436.2c9.8,4.2,15.3,15.2,15.3,15.2s-10.4,4.4-20.2,0.2s-15.3-15.4-15.3-15.4
		S1323.9,1432,1333.7,1436.2z M1223.4,1390.7c9.8,4.2,15.3,15.3,15.3,15.3s-10.4,4.3-20.2,0.1c-9.8-4.2-15.4-15.2-15.4-15.2
		S1213.6,1386.5,1223.4,1390.7L1223.4,1390.7z M987,1326.5c-13.7-6.6-19.7-21.8-19.7-21.8s16.5-5.5,30.2,1.1s19.2,22.7,19.2,22.7
		S1000.7,1333.1,987,1326.5L987,1326.5z M1016.9,1356.2c-6.9-3.5-9.4-11.1-9.4-11.1s8.8-2.3,15.7,1.2c6.9,3.5,9.2,11.3,9.2,11.3
		S1023.8,1359.7,1016.9,1356.2L1016.9,1356.2z M1066.1,1369.8c-15.2-6.4-22.8-22.5-22.8-22.5s17.7-6.9,32.9-0.6
		c15.2,6.4,22.3,23.5,22.3,23.5S1081.4,1376.1,1066.1,1369.8L1066.1,1369.8z M1107.1,1410.6c-10-3.5-15.8-14-15.8-14
		s10.6-5.1,20.6-1.5c10,3.5,15.6,14.3,15.6,14.3S1117.1,1414.1,1107.1,1410.6L1107.1,1410.6z M1123.9,1366.5
		c-7.2-2.6-11.4-10.1-11.4-10.1s7.6-3.6,14.9-1s11.3,10.2,11.3,10.2S1131.1,1369,1123.9,1366.5L1123.9,1366.5z M1147.9,1448.2
		c-7.2-2.8-11.2-10.7-11.2-10.7s7.5-3.3,14.7-0.5s11.2,10.8,11.2,10.8S1155.1,1451,1147.9,1448.2L1147.9,1448.2z M1137.1,1387.5
		c0,0,19.8-9,38.5-1.5s29.1,28.4,29.1,28.4s-19.6,8.2-38.2,0.8C1147.8,1407.7,1137.1,1387.5,1137.1,1387.5L1137.1,1387.5z
		 M1201.1,1459.6c-15.3-6.5-23.9-23.6-23.9-23.6s16.2-6.9,31.5-0.4s23.8,23.9,23.8,23.9S1216.4,1466.1,1201.1,1459.6L1201.1,1459.6z
		 M1252.7,1499.7c-9.8-4.3-15.3-15.5-15.3-15.5s10.3-4.3,20.1,0c9.8,4.3,15.3,15.5,15.3,15.5S1262.4,1504,1252.7,1499.7
		L1252.7,1499.7z M1265.7,1460.3c-21.7-9.5-34-34.3-34-34.3s23-9.6,44.8,0s34,34.3,34,34.3S1287.5,1469.9,1265.7,1460.3
		L1265.7,1460.3z M1311.4,1507.5c-15.3-6.5-23.8-23.9-23.8-23.9s16.1-6.7,31.4-0.1s23.9,23.7,23.9,23.7S1326.7,1514,1311.4,1507.5
		L1311.4,1507.5z M1360.6,1543c-7.2-2.9-11.2-10.8-11.2-10.8s7.5-3.2,14.7-0.4s11.2,10.6,11.2,10.6S1367.8,1545.8,1360.6,1543
		L1360.6,1543z M1366.6,1500.3c-18.7-7.5-29.1-28.4-29.1-28.4s19.6-8.2,38.3-0.8s29.4,27.7,29.4,27.7S1385.3,1507.8,1366.6,1500.3
		L1366.6,1500.3z M1415,1541.1c-10-3.5-15.7-14.2-15.7-14.2s10.5-4.8,20.5-1.2s15.8,13.9,15.8,13.9S1425.1,1544.6,1415,1541.1
		L1415,1541.1z M1431.9,1489.8c-7.3-2.5-11.3-10.2-11.3-10.2s7.6-3.5,14.8-0.9s11.4,10.1,11.4,10.1S1439.1,1492.3,1431.9,1489.8
		L1431.9,1489.8z M1469.6,1533.5c-15.9-4.6-24.8-20.9-24.8-20.9s16.4-7.8,32.3-3.2s25.1,19.9,25.1,19.9S1485.5,1538.2,1469.6,1533.5
		L1469.6,1533.5z M1517.6,1561.1c-7.6-1.6-11.9-8.5-11.9-8.5s7.8-4.2,15.4-2.6s12,8.2,12,8.2S1525.2,1562.6,1517.6,1561.1
		L1517.6,1561.1z M1565.3,1551.2c-15.5-2.1-26.2-16.1-26.2-16s14.3-9.7,29.9-7.6s26.4,15,26.4,15S1580.8,1553.3,1565.3,1551.2
		L1565.3,1551.2z M1650.1,1552.1c-12.8,0.1-23-10-23-10s10.5-9.4,23.2-9.5s23,9.2,23,9.2S1662.8,1552,1650.1,1552.1L1650.1,1552.1z
		 M1687.3,1529.5c-6.1,1-11.6-2.6-11.6-2.6s4.2-5.7,10.3-6.7s11.7,3,11.7,3S1693.4,1528.5,1687.3,1529.5L1687.3,1529.5z
		 M1731.8,1544c-15,4.2-31.4-3.8-31.4-3.8s8.2-14.3,23.3-18.6s31.2,3.2,31.2,3.2S1746.8,1539.8,1731.8,1544z M1764.1,1508.5
		c-6.9,3.1-14.6,0.5-14.6,0.5s3.2-8,10.2-11.1s14.8,0,14.8,0S1771,1505.5,1764.1,1508.5L1764.1,1508.5z M1817.3,1510.5
		c-16.2,8.1-36.7,2.5-36.7,2.5s6.2-18.1,22.5-26.2s36.3-3.2,36.3-3.2S1833.6,1502.4,1817.3,1510.5L1817.3,1510.5z M1846.7,1467.4
		c-4.5,4.2-11.1,4.3-11.1,4.3s0.3-7,4.8-11.3s11.4-4,11.4-4S1851.2,1463.2,1846.7,1467.4L1846.7,1467.4z M1890.7,1457.7
		c-10.8,11.3-29,12.7-29,12.7s-0.2-16.5,10.7-27.8s28.6-13.1,28.6-13.1S1901.6,1446.5,1890.7,1457.7L1890.7,1457.7z M1902.5,1409.7
		c-3.8,6.5-11.5,9-11.5,9s-2.1-8.4,1.7-15s11.9-8.8,11.9-8.8S1906.3,1403.1,1902.5,1409.7L1902.5,1409.7z M1914.1,1369.4
		c-2.6,4.7-8,6.5-8,6.5s-1.6-5.9,1-10.6s8.3-6.3,8.3-6.3S1916.7,1364.7,1914.1,1369.4L1914.1,1369.4z M1948,1387.8
		c-9,14.7-28.2,20.5-28.2,20.5s-4.1-17.7,4.8-32.4s27.6-20.8,27.6-20.8S1957.1,1373.2,1948,1387.8L1948,1387.8z M1952,1248.2
		c2.1-9.3,10.1-15.8,10.1-15.8s5.4,9.1,3.2,18.9s-11.2,15.8-11.1,15.7S1950,1257.5,1952,1248.2L1952,1248.2z M1984.2,1297.6
		c-4.7,17.9-22.6,29.9-22.6,29.9s-9.8-16.9-5.2-34.9s21.9-30,21.9-30S1988.9,1279.7,1984.2,1297.6L1984.2,1297.6z M2000.1,1198.1
		c-1.1,20.8-16.7,35.2-16.7,35.1s-10-17.7-9.1-36.5s12.8-34.9,12.9-35.1S2001.2,1177.3,2000.1,1198.1L2000.1,1198.1z"/>
	<path class="st0" d="M912.6,2047c-55.4,52.6-135.5,67.2-209.2,56.7c-70.6-10-137.9-41.9-192.4-87.8
		c-57.6-36.1-107.2-84.3-143.5-142c-41.5-65.9-64.9-142.6-69.7-220.2c-5.1-82.9,10.1-169.3,50.9-242.3
		c19.1-34.3,44.3-65.8,75.9-89.4c25.2-18.8,54.1-33.1,83.9-42.9c71.9-23.7,149.3-23.8,223.4-11.1c8.3,1.4,16.5,3,24.7,4.7
		c-0.4-0.6-0.8-1.1-1.1-1.7c-4.3-7.4-7.2-15.5-8.5-23.9l-0.6,0.4c0,0-0.1-4.6-0.2-7.5c-2.9,0.6-5.9,0.7-8.9,0.3
		c-11.2-1.5-19-10.8-19-10.8s10.5-7.7,21.7-6.2c2,0.3,3.9,0.8,5.7,1.5c-0.2-6.6-1.3-13.1-3.1-19.3c-127-16.5-260.5-0.9-360.9,83.9
		c-62.9,53.1-103.4,127.6-120.6,207.6c-17.8,82.6-11.7,168.8,10.3,250.1c42.5,156.6,144.7,302.3,298.3,365.2
		c73.6,30.1,158.1,41.6,235.8,20.7c74-20,136.5-69.5,162.9-142.7c15.7-43.5,17-89.3,12-134.8C980.9,1925.6,965.2,1997.1,912.6,2047z
		 M306,1487.9c-1.3,5.5-6.4,8.9-6.4,8.9s-3.3-5.6-2-11.1s6.7-8.8,6.7-8.8S307.3,1482.4,306,1487.9z M329.7,1420.1
		c-3.3,7.2-10.8,11.7-10.8,11.7s-2.7-7.8,0.8-15.4s11.6-11.3,11.6-11.3C331.2,1405,333,1412.9,329.7,1420.1z M706.2,1232.7
		c4.1,0.6,6.8,4.2,6.8,4.2s-3.7,2.5-7.8,2c-2.7-0.5-5.1-1.9-6.9-3.9C698.4,1235,702.1,1232.2,706.2,1232.7L706.2,1232.7z
		 M678.2,1217.7c9.9,0.4,17.4,8.7,17.4,8.7s-8.5,6.8-18.4,6.4s-17.4-8-17.4-8S668.3,1217.2,678.2,1217.7L678.2,1217.7z
		 M648.6,1231.3c5-0.3,9.2,3.3,9.2,3.3s-3.9,3.9-8.8,4.3c-5,0.3-9.2-3-9.2-3S643.6,1231.6,648.6,1231.3z M616.6,1217.8
		c11.3,0,20.3,8.9,20.3,8.9s-9.3,8.3-20.6,8.3s-20.3-8.2-20.3-8.2S605.3,1217.8,616.6,1217.8z M585.3,1235.2c5.6-0.8,10.6,3,10.6,3
		s-4,4.7-9.6,5.5s-10.6-2.7-10.6-2.7S579.7,1235.9,585.3,1235.2L585.3,1235.2z M549.1,1223.9c12.7-2,22.8,6.5,22.8,6.5
		s-10.6,10.9-23.4,12.9s-22.8-5.6-22.8-5.6S536.3,1225.9,549.1,1223.9L549.1,1223.9z M513.8,1251c8.1-2.2,15.4,1.8,15.3,1.8
		s-5.8,6.7-13.4,8.7s-15.1-1.1-15.1-1.1S505.6,1253.2,513.8,1251L513.8,1251z M462.9,1249.2c16-7.2,31.7-1.6,31.6-1.6
		s-10.1,13.8-24.4,20.3s-30.2,4.3-30.4,4.3C439.6,1272.2,446.9,1256.4,462.9,1249.2L462.9,1249.2z M433.8,1285
		c11.3-7,24.1-4.3,24-4.2s-5.6,12-15.8,18.4c-10.2,6.4-23,5.7-23.1,5.7C418.9,1305,422.6,1292,433.8,1285z M384.2,1297.8
		c15.9-13.5,35.1-12.9,34.9-12.8s-6.7,18.3-20.6,30.3s-33.1,15.3-33.2,15.5C365.1,1330.8,368.4,1311.3,384.2,1297.8L384.2,1297.8z
		 M362.2,1346.5c8.6-10.1,22-11.8,22-11.7s-1.3,12.7-9.1,21.9c-7.8,9.2-20.5,12.8-20.6,12.9C354.4,1369.6,353.6,1356.6,362.2,1346.5
		L362.2,1346.5z M323.7,1368.8c9.7-14.6,25.7-20,25.6-19.9s-0.5,16.1-9.1,29.2c-8.7,13.1-23.9,20.7-24,20.8
		C315.2,1388.4,317.9,1377.8,323.7,1368.8L323.7,1368.8z M274.5,1508.6c2.1-10.4,12.1-16.9,12.1-16.9s5.8,10.1,3.7,20.5
		s-11.4,17.1-11.4,17.1S272.3,1519,274.5,1508.6z M269.1,1562.7c0.6-8.7,8-15.2,8-15.2s5.9,7.6,5.3,16.3c-0.6,8.7-7.4,15.2-7.4,15.2
		S268.5,1571.4,269.1,1562.7z M283.8,1582.6c1.5,1.8,2.4,4,2.6,6.4c-0.1,2.3-1,4.5-2.5,6.3c0,0-2.8-2.9-2.8-6.4
		S283.8,1582.6,283.8,1582.6z M268.6,1609.3c-0.2-7.4,5.5-13.4,5.5-13.4s5.6,5.9,5.8,13.3s-5,13.4-5,13.4S268.8,1616.6,268.6,1609.3
		z M271.6,1656c-0.7-6.7,4.1-12.5,4.1-12.5s5.4,5,6.1,11.6s-3.6,12.4-3.6,12.4S272.2,1662.6,271.6,1656z M287.2,1712.8
		c0,0-5.9-4-7.2-10c-1.3-6,2.5-11.8,2.5-11.8s5.5,4,6.8,10.1C290.6,1707.1,287.2,1712.8,287.2,1712.8L287.2,1712.8z M291.6,1541.6
		c-0.6,4.5-4.3,7.7-4.3,7.7s-3.1-4.2-2.6-8.7c0.6-4.5,4.6-7.6,4.6-7.6S292.1,1537.1,291.6,1541.6z M289.3,1447.5
		c3.7-11.9,16-18.3,16-18.3s5.6,12.5,1.9,24.3s-15.2,18.6-15.2,18.6S285.6,1459.3,289.3,1447.5z M301,1769.7c0,0-5.5-3.3-7-8.7
		c-1.4-5.4,1.7-10.9,1.7-10.9s5.2,3.4,6.6,8.8C303.8,1764.3,301,1769.7,301,1769.7z M358.6,1895.7c0,0-6.2-1.6-9.2-6.4
		s-1.5-10.9-1.5-10.9s5.9,1.8,8.9,6.6S358.6,1895.7,358.6,1895.7L358.6,1895.7z M383.2,1935.1c0,0-7.5-1.6-11.2-7.1
		s-2.3-12.9-2.3-12.9s7.1,1.8,10.9,7.4S383.2,1935.1,383.2,1935.1L383.2,1935.1z M402.9,1967.6c-5.8-6.5-5.3-16.3-5.3-16.3
		s9.6,1.1,15.4,7.6s5.8,15.9,5.8,15.9S408.8,1974.1,402.9,1967.6L402.9,1967.6z M436.1,2000.4c-5.4-5-5.8-13.2-5.8-13.2
		s8.1,0.1,13.6,5.1c5.4,5,6.1,12.9,6.1,12.9S441.6,2005.4,436.1,2000.4L436.1,2000.4z M471.7,2030.8c-5.2-4.2-6.1-11.6-6.1-11.6
		s7.4-0.4,12.6,3.7s6.4,11.3,6.4,11.3S476.9,2034.9,471.7,2030.8L471.7,2030.8z M511.2,2057.2c-5.3-3.3-6.8-10-6.8-10
		s6.7-1.2,12,2.1s7,9.7,7,9.7S516.4,2060.5,511.2,2057.2L511.2,2057.2z M562.7,2087.7c-4.9-2.7-6.7-8.8-6.7-8.8s6-1.4,11,1.3
		s6.9,8.5,6.9,8.5S567.6,2090.4,562.7,2087.7L562.7,2087.7z"/>
	<path class="st0" d="M1332.6,812c40.8-2.2,81.7-2.1,122.4,0.4c-0.8-0.4-1.5-0.9-2.3-1.4l-8.5-7.7c-1.6-1.9-2.9-4-4.1-6.2
		c-1.9-2.4-3.5-3.2-6.3-3.2c-0.7,0-1.3,0.1-2,0.1c-0.8,0.1-1.6,0.2-2.4,0.2c-0.6,0-1.1,0-1.7-0.1c-18.4-0.1-35.8-8.2-47.7-22.2
		l-7.2-10.4c-0.6-1.1-1.2-2.3-1.8-3.4c-2.1-3.7-3.1-4.4-9.1-4.4h-0.2h-0.3c-0.6,0-1.1-0.1-1.7-0.2c-15.2-1.4-27.8-12.1-31.8-26.8
		c-0.3-1-0.6-1.9-0.9-2.9c-7.7,0.5-15.5,1-23.2,1.6c-157.2,12.8-315.4,30.8-473.2,19.9c2.1,14.6,2.3,29.3,0.7,43.9
		c7.4,1.3,14.4,4.2,20.5,8.4c0,0-10.2,11.9-24.5,14.4c-0.4,1.5-0.7,3-1.1,4.5c-6.2,23.2-17,44.9-31.9,63.9
		c15.8-0.8,31.5-1.9,47.3-3.3c81.6-7,162.7-19.6,243.5-33.2C1167.5,830.3,1249.3,816.4,1332.6,812z M1353.1,764.4
		c10-0.3,18.2,7.1,18.2,7.1s-8.1,7.7-18.1,8s-18.3-7-18.3-7S1343.1,764.7,1353.1,764.4L1353.1,764.4z M836.3,831.9
		c-4.5,0.5-8.5-2.6-8.5-2.6s3.4-3.8,7.9-4.3s8.5,2.5,8.5,2.5S840.8,831.4,836.3,831.9z M1196.6,814.8c-10,1.1-18.4-5.6-18.4-5.6
		s7.8-8.5,17.8-9.5s18.4,5.6,18.4,5.6S1206.6,813.7,1196.6,814.8z M1305.8,799.2c-7.2,0.6-13.3-4.3-13.3-4.3s5.6-6,12.9-6.6
		s13.3,4.4,13.3,4.4S1313.1,798.6,1305.8,799.2L1305.8,799.2z M1295.8,739.9c18.9-1.7,34.8,11.6,34.8,11.6s-14.8,15.4-33.7,17.1
		s-34.8-11.1-34.8-11.1S1276.9,741.5,1295.8,739.9L1295.8,739.9z M1278,779.5c0,0-12.1,13-27.7,14.6s-28.7-8.8-28.7-8.8
		s12.2-13.2,27.7-14.8S1278,779.5,1278,779.5L1278,779.5z M1193.6,747.7c22.2-2.4,40.9,12.5,40.9,12.5s-17.3,18.7-39.6,21.2
		S1154,769,1154,769S1171.4,750.2,1193.6,747.7L1193.6,747.7z M1165.4,791.8c0,0-12,13.3-27.6,15s-28.8-8.7-28.8-8.7
		s12-13.1,27.6-14.9C1152.2,781.5,1165.4,791.8,1165.4,791.8L1165.4,791.8z M1091.5,761.9c18.9-1.9,34.9,10.7,34.9,10.7
		s-14.6,16-33.5,17.9s-35-11.2-35-11.2S1072.6,763.8,1091.5,761.9z M873.7,819c-6.9,0.8-13-3.9-13-3.9s5.1-5.8,12-6.5
		s12.9,3.8,12.9,3.8S880.6,818.2,873.7,819z M911.9,829.2c-4.5,0.5-8.5-2.6-8.5-2.6s3.4-3.8,7.9-4.3s8.5,2.5,8.5,2.5
		S916.4,828.8,911.9,829.2L911.9,829.2z M912.2,802.4c-13,0.6-24-9-24-9s9.9-10,22.9-10.6s24,8.4,24,8.4S925.1,801.8,912.2,802.4
		L912.2,802.4z M954.2,815.7c-8.3,0.9-15.5-4.7-15.5-4.7s6.2-6.9,14.4-7.8s15.5,4.5,15.5,4.5S962.4,814.8,954.2,815.7L954.2,815.7z
		 M1000.5,823.3c-6.1,0.7-11.4-3.4-11.4-3.4s4.5-5.1,10.6-5.8s11.4,3.3,11.4,3.3S1006.5,822.6,1000.5,823.3L1000.5,823.3z
		 M995.7,798.8c-15.6,1.2-29.3-9.9-29.3-9.9s11.6-12.4,27.2-13.6s29.2,9.3,29.2,9.3S1011.2,797.6,995.7,798.8L995.7,798.8z
		 M1042,808.8c-10,1.1-18.8-5.7-18.8-5.7s7.4-8.3,17.4-9.5s18.8,5.5,18.8,5.5S1051.9,807.7,1042,808.8L1042,808.8z M1086.7,809.1
		c7.2-0.7,13.4,4.2,13.4,4.2s-5.6,6.1-12.8,6.8s-13.4-4.2-13.4-4.2S1079.4,809.8,1086.7,809.1L1086.7,809.1z"/>
	<path class="st0" d="M494.7,794.7c30.2,19.8,62.9,35.7,96.7,48.5c18.5,7.3,37.8,13.8,57.5,19.7c2.7,0.2,5.4,0.6,8.1,1.1l0,0
		l1.7,0.2c3.7,0.6,7.5,0.9,11.3,1c6.8,0,12.7-1.8,19.9-6l11.5-6.6c15.9-9.2,28.8-22.8,37.1-39.3c-10.6-1.6-18.8-9.4-18.8-9.4
		s9.9-9,22.3-9c1.2,0,2.3,0.1,3.5,0.3c5.4-19.8,4.2-40.8-3.4-59.8c-46.4-7.9-87.1-19.7-122.1-34.5c-8.6-1.5-17.2-3.3-25.6-5.6
		c-71.9-19.6-139.6-64.7-175-131.6C380.8,491,391,403.9,432.7,334.8C495.4,230.5,630.2,197.5,744,200c82.6,1.7,164.6,9.5,242.9,37.5
		c36.4,13.1,71,30.8,102.9,52.8c5,3.4,9.8,7,14.5,10.7c1.6,0.8,3.2,1.6,4.8,2.5l0,0l1.1,0.6c1.8,1,3.6,2,5.4,3
		c1.1,0.6,2.1,1.2,3.1,1.9c2.4,1.5,4.9,3,7.2,4.5c23.6,15.3,44.6,34.1,66.1,52.4c62.3,53,68.3,35.6,52.9,7.8
		c-6.6-12-14.4-32.2-26.4-54.8l0,0c-3.7-14.7,34,10.2,49,56s33,50.3,33,50.3c-3.9-3.5-5.7-8.8-4.8-13.9c6.5,1.2,13.2-0.2,18.7-3.9
		c0,0-22,6.8-33.4-20.3c-13.8-33-7.9-74.8-68.2-104.4c10.8-13,28.3-17.2,44.5-20.1c20.8,4.9,37.4,11.6,50.4,16.6
		c-1,10.3-3.5,24.1-15.3,34.8c14.5-4.7,26.6-15,33.4-28.7c1.3,0.3,2.5,0.5,3.8,0.7c0.5,0,1.4,0.2,2.5,0.4
		c-5.5,14.7-19.5,24.9-19.5,24.9c13.3-3.1,24.8-11.7,31.5-23.6c8.5-0.5,14.4-6-2-29.9c-17.1-24.7-73.9-108.9-252.4-118.2l0,0h-0.5
		c-13.1-0.7-26.9-0.9-41.3-0.8c-190.6-6.1-328.8-40.5-498.2,23.2C353.5,235.6,259.3,452.7,344,631.7
		C375.2,697.8,427.7,752.5,494.7,794.7z M705.3,815c5.3,0.2,9.4,4.2,9.4,4.2s-4.5,4-9.9,3.8c-5.3-0.2-9.4-4.4-9.4-4.4
		S699.9,814.9,705.3,815z M1317.1,283l4.5,1.8c0,0-6.2,13.3-17.9,21.9C1303.7,306.7,1311.1,299.9,1317.1,283z M1208.1,193.5
		c-2.4,6.9,0.1,14.5,6,18.7c-3.9-4.9-4.6-11.6-1.8-17.2c2.7,1,5.6,2.2,8.6,3.5c-5.4,8.1-4,15.7-4,15.7s8.6-1.4,15.4-10.4
		c5.5,2.7,10.8,5.7,15.9,9c0,0-32.1,22-54.3-24C1193.8,188.9,1199.6,190.4,1208.1,193.5L1208.1,193.5z M1185.3,247.2
		c28.2,1.3,60.6,7.6,60.6,7.6c-25.1,2-67.8-11.9-67.3,6.4c0.1,6,1.7,12,4.6,17.2C1183.2,278.4,1157.1,245.9,1185.3,247.2
		L1185.3,247.2z M1000.1,159.4c5.4,0,9.4,4.2,9.3,4.2c0,0-4.5,3.1-9.4,3.1s-9.1-3.3-9.2-3.3C993.3,161,996.6,159.6,1000.1,159.4z
		 M929.2,155.2c6.7,0,11.5,5.2,11.5,5.2c-0.1,0-5.6,3.9-11.6,3.8c-6,0-11.3-4-11.3-4S922.6,155.1,929.2,155.2L929.2,155.2z
		 M856.8,150.1c7.5,0.1,12.9,5.8,12.9,5.8c-0.1,0-6.2,4.3-13,4.3s-12.6-4.5-12.7-4.5S849.3,150,856.8,150.1L856.8,150.1z M778.8,145
		c8.6,0.1,15,6.7,14.9,6.7s-7.2,5-15,4.9s-14.6-5.2-14.7-5.3S770.2,144.9,778.8,145L778.8,145z M741.1,157.7
		c2.8,0.1,5.5,1.2,7.5,3.1c-2.2,1.5-4.7,2.5-7.4,2.7c-2.6-0.1-5.2-0.9-7.4-2.4C735.8,159.1,738.3,157.9,741.1,157.7z M700.8,146.4
		c9.8-0.8,17.5,6.1,17.4,6.1s-7.6,6.3-16.4,7c-8.8,0.7-17-4.5-17.1-4.5S691.1,147.2,700.8,146.4z M667.3,164.4
		c5.1-1.1,9.7,1.9,9.6,1.9s-3.6,3.9-8.1,4.9s-9.3-1.1-9.3-1.1S662.2,165.6,667.3,164.4L667.3,164.4z M630.1,155.5
		c11.1-2.3,21.1,4.4,21,4.4s-7.8,8.5-17.8,10.6S613.1,168,613,168C612.8,168,619,157.9,630.1,155.5L630.1,155.5z M599.2,180.5
		c2.7-0.8,5.6-0.5,8.1,0.7c0,0-2.6,3.6-6.2,4.8c-2.5,0.7-5.2,0.7-7.8,0C594.5,183.5,596.6,181.5,599.2,180.5L599.2,180.5z
		 M563.4,176.6c9.2-3.4,18.5,1.1,18.4,1.1s-5.6,8.2-13.8,11.3s-17.5,0.4-17.6,0.4S554.2,180,563.4,176.6L563.4,176.6z M504.5,207.3
		c6.7-4.3,15-2.3,15-2.3s-3.1,7.5-9.1,11.4c-6.1,3.9-14,3.3-14.1,3.4C496.2,219.8,497.7,211.6,504.5,207.3L504.5,207.3z
		 M445.7,250.9c6.8-7,17.2-7,17.1-7s-1.5,9.8-7.6,16.1c-6.1,6.3-15.7,8-15.8,8C439.4,268,438.9,257.9,445.7,250.9L445.7,250.9z
		 M459,745c-8.1-5.9-10-16.1-10-16.1c0.1,0,10.2-0.2,17.8,5.3c7.6,5.5,10.5,15.3,10.6,15.3S467.1,750.9,459,745z M543.6,784
		c-6-2.4-8.8-8.9-8.8-8.9s6.7-2.4,12.7,0s8.9,8.8,8.9,8.8S549.6,786.4,543.6,784z M667.2,792c12.3,1.2,21.5,11.2,21.5,11.2
		s-10.7,8.6-23,7.4s-21.5-11.7-21.5-11.7S654.9,790.8,667.2,792z M636.6,774.2c6.5,1.2,10.7,7,10.7,7s-6.3,4-12.8,2.7
		c-6.5-1.2-10.7-7.1-10.7-7.1S630.1,773,636.6,774.2z M628.2,804.7c4.8,0.9,8,5.3,8,5.3s-4.7,2.9-9.5,2s-8-5.4-8-5.4
		S623.4,803.8,628.2,804.7L628.2,804.7z M603.8,753.2c4.5,1.6,6.9,6.2,6.9,6.2s-5,2.1-9.5,0.5s-6.9-6.3-6.9-6.3
		S599.3,751.6,603.8,753.2z M596.6,775.6c13.2,4.2,22.5,16.6,22.6,16.6s-14.2,7.8-28.9,3.2s-21.6-19.1-21.5-19
		C568.9,776.5,583.3,771.5,596.6,775.6z M562.9,745.6c7.3,3.5,11,12.1,11.1,12.1s-8.9,3.7-16.8-0.1c-7.8-3.7-10.6-13-10.6-12.9
		S555.6,742.2,562.9,745.6L562.9,745.6z M537.2,717.8c4.5,2.9,6,9.2,6,9.2s-6.3,2-11.1-1.1s-5.8-9.6-5.8-9.6
		C526.3,716.4,532.7,715,537.2,717.8L537.2,717.8z M536,758c0.2,0-18,6.7-34.2-1.8c-16.2-8.6-20.8-27.3-20.7-27.2s18.1-2.6,32.4,4.9
		C527.8,741.3,535.9,757.9,536,758z M508.2,716.4c0.1,0-14.5,3.6-25.4-4.4s-12.1-22.9-12-22.8s14.4-1,24.1,6
		C504.7,702.3,508.2,716.3,508.2,716.4L508.2,716.4z M456,650.8c0,0,9,0.1,14.2,5.1s5.4,14,5.4,14s-9.1,0.9-14.7-4.6
		C455.2,659.8,456,650.7,456,650.8L456,650.8z M462,713.5c0.2,0.1-22.5,2-37.8-13.2s-13.9-37.8-13.8-37.6s21.3,3.5,34.6,16.5
		S461.9,713.3,462,713.5L462,713.5z M431.7,632c7,9.8,5.8,24.1,5.8,24.2s-14.9-1.2-22.7-12.2c-7.9-11-4.2-25.5-4.1-25.4
		C410.7,618.7,424.7,622.2,431.7,632z M404,581.9c0,0,6.1,2.2,8.4,7.1c2.3,4.9,0.1,10.9,0.1,11s-6.4-1.8-8.8-6.9
		C401.3,587.9,404,581.8,404,581.9L404,581.9z M381.6,667.5c-5.8-8.1-4.3-18.4-4.3-18.4s9.7,3.1,15.2,10.7
		c5.5,7.6,5.1,17.8,5.1,17.8S387.4,675.6,381.6,667.5z M398.7,304.6c6.8-9.1,18.8-10.6,18.7-10.6s-0.3,11.5-6.3,19.8
		s-16.9,11.5-17,11.6C394,325.4,392,313.8,398.7,304.6L398.7,304.6z M394.9,342c2.2-4.4,7.5-5.9,7.5-5.9s1.3,5.2-0.7,9.3
		c-2.1,4.1-7,6.1-7,6.1S392.6,346.4,394.9,342z M395.9,642.5c0.1,0.1-18.5-4.9-26.7-21.3c-8.2-16.3-1.2-34.4-1.1-34.2
		s16.4,8.7,23.7,23C399,624.4,395.8,642.3,395.9,642.5L395.9,642.5z M373.4,484.7c0.6,6.6-4,12.8-4,12.9s-6.3-4.8-6.9-11.9
		s4.8-13,4.8-13C367.2,472.6,372.8,478,373.4,484.7L373.4,484.7z M369.7,411.9c0.8-5.4,5.9-8.8,5.9-8.8s3.2,5,2.4,10
		s-5.3,8.8-5.3,8.8S368.8,417.3,369.7,411.9L369.7,411.9z M383.7,575.8c0,0-8.6-4.2-11-12.6c-2.4-8.4,2.7-16.6,2.7-16.5
		s7.9,5.2,10.1,12.9C387.7,567.3,383.6,575.7,383.7,575.8L383.7,575.8z M364.3,368.5c4.5-11.8,16.9-17.1,16.8-17.1
		c-0.1,0.1,3.2,12.5-0.8,23.1s-14.7,17.4-14.7,17.5S359.7,380.3,364.3,368.5z M343.6,445.6c1.2-14.2,12.9-23.8,12.9-23.7
		s7.3,12.5,6.3,25.3s-10.4,23.4-10.4,23.6C352.3,470.8,342.4,459.8,343.6,445.6z M351.6,499.6c0,0.1,10.5,11.6,12.1,25.3
		c1.7,13.7-5.9,27-5.9,27.1s-12.9-9.3-14.7-24.6C341.3,512.2,351.6,499.5,351.6,499.6z M344.9,561c0,0,6,4.5,7.9,11.2
		s-0.8,13.6-0.8,13.6s-6.5-3.9-8.5-11S344.9,561,344.9,561z"/>
</g>
</svg>
